<?xml version="1.0" encoding="UTF-8"?>
<svg width="55px" height="53px" viewBox="0 0 55 53" version="1.1" xmlns="http://www.w3.org/2000/svg" xmlns:xlink="http://www.w3.org/1999/xlink">
    <!-- Generator: Sketch 54.1 (76490) - https://sketchapp.com -->
    <title>Group 3</title>
    <desc>Created with Sketch.</desc>
    <defs>
        <polygon id="path-1" points="0 0 55 0 55 53 0 53"></polygon>
    </defs>
    <g id="Page-1" stroke="none" stroke-width="1" fill="none" fill-rule="evenodd">
        <g id="Desktop-HD-Copy-8" transform="translate(-494.000000, -675.000000)">
            <g id="Group-3" transform="translate(494.000000, 675.000000)">
                <mask id="mask-2" fill="white">
                    <use xlink:href="#path-1"></use>
                </mask>
                <g id="Clip-2"></g>
                <path d="M1.23072688,23.7537949 L11.1772344,32.3225778 C12.1766548,33.183814 12.6132592,34.5354968 12.3072692,35.8236579 L9.26351317,48.6402704 C8.5392636,51.6944827 11.8405795,54.1090463 14.5020316,52.4707771 L25.6717651,45.5971374 C26.7937283,44.9065235 28.2062717,44.9065235 29.3282349,45.5971374 L40.4979684,52.4707771 C43.1594205,54.1090463 46.4614702,51.6944827 45.735753,48.6402704 L42.6927308,35.8236579 C42.3867408,34.5354968 42.8233452,33.183814 43.8227656,32.3225778 L53.7692731,23.7537949 C56.1386772,21.7122367 54.878028,17.8056517 51.768231,17.5559966 L38.7177967,16.5086271 C37.4065161,16.4030038 36.2640069,15.5676194 35.7598939,14.3451959 L30.7371094,2.17487986 C29.5402998,-0.724959955 25.4597002,-0.724959955 24.2628906,2.17487986 L19.2401061,14.3451959 C18.7352594,15.5676194 17.5934839,16.4030038 16.2822033,16.5086271 L3.23176901,17.5559966 C0.121971958,17.8056517 -1.13867725,21.7122367 1.23072688,23.7537949" id="Fill-1" fill="#FCCB00" mask="url(#mask-2)"></path>
            </g>
        </g>
    </g>
</svg>