<?xml version="1.0" encoding="UTF-8"?>
<svg width="39px" height="37px" viewBox="0 0 39 37" version="1.1" xmlns="http://www.w3.org/2000/svg" xmlns:xlink="http://www.w3.org/1999/xlink">
    <!-- Generator: Sketch 54.1 (76490) - https://sketchapp.com -->
    <title>Rectangle</title>
    <desc>Created with Sketch.</desc>
    <defs>
        <path d="M0.961508813,16.713927 L7.9240641,22.5989025 C8.62365837,23.190393 8.92928142,24.1187186 8.71508846,25.0034179 L6.58445922,33.8057706 C6.07748452,35.9033806 8.38840567,37.5616846 10.2514221,36.4365337 L18.0702356,31.7157699 C18.8556098,31.2414614 19.8443902,31.2414614 20.6297644,31.7157699 L28.4485779,36.4365337 C30.3115943,37.5616846 32.6230291,35.9033806 32.1150271,33.8057706 L29.9849115,25.0034179 C29.7707186,24.1187186 30.0763416,23.190393 30.7759359,22.5989025 L37.7384912,16.713927 C39.3970741,15.3118003 38.5146196,12.6287872 36.3377617,12.457326 L27.2024577,11.7380005 C26.2845612,11.6654592 25.4848048,11.0917235 25.1319258,10.2521723 L21.6159766,1.89369108 C20.7782099,-0.0978970254 17.9217901,-0.0978970254 17.0840234,1.89369108 L13.5680742,10.2521723 C13.2146815,11.0917235 12.4154388,11.6654592 11.4975423,11.7380005 L2.36223831,12.457326 C0.185380371,12.6287872 -0.697074073,15.3118003 0.961508813,16.713927 Z" id="path-1"></path>
    </defs>
    <g id="Page-1" stroke="none" stroke-width="1" fill="none" fill-rule="evenodd">
        <g id="Desktop-HD-Copy-8" transform="translate(-737.000000, -676.000000)">
            <g id="Rectangle" transform="translate(737.000000, 676.000000)">
                <mask id="mask-2" fill="white">
                    <use xlink:href="#path-1"></use>
                </mask>
                <use id="Mask" fill="#0189E9" xlink:href="#path-1"></use>
                <rect fill="#FCCB00" mask="url(#mask-2)" x="-8" y="-10" width="27" height="55"></rect>
            </g>
        </g>
    </g>
</svg>