<?xml version="1.0" encoding="UTF-8"?>
<svg width="511px" height="74px" viewBox="0 0 511 74" version="1.1" xmlns="http://www.w3.org/2000/svg" xmlns:xlink="http://www.w3.org/1999/xlink">
    <!-- Generator: Sketch 54.1 (76490) - https://sketchapp.com -->
    <title>Group</title>
    <desc>Created with Sketch.</desc>
    <defs>
        <polygon id="path-1" points="0 0.215195902 59.5865769 0.215195902 59.5865769 69.3900443 0 69.3900443"></polygon>
        <polygon id="path-3" points="0.340786364 0.251896875 49.9055591 0.251896875 49.9055591 72.75 0.340786364 72.75"></polygon>
        <polygon id="path-5" points="0.0196431818 0.251896875 49.5844159 0.251896875 49.5844159 72.75 0.0196431818 72.75"></polygon>
        <polygon id="path-7" points="0.2107125 0.41147 17.57025 0.41147 17.57025 17.14972 0.2107125 17.14972"></polygon>
        <polygon id="path-9" points="0 0.215195902 59.5865769 0.215195902 59.5865769 69.3900443 0 69.3900443"></polygon>
        <polygon id="path-11" points="0.340786364 0.251896875 49.9055591 0.251896875 49.9055591 72.75 0.340786364 72.75"></polygon>
        <polygon id="path-13" points="0.0196431818 0.251896875 49.5844159 0.251896875 49.5844159 72.75 0.0196431818 72.75"></polygon>
        <polygon id="path-15" points="0.2107125 0.41147 17.57025 0.41147 17.57025 17.14972 0.2107125 17.14972"></polygon>
    </defs>
    <g id="Page-1" stroke="none" stroke-width="1" fill="none" fill-rule="evenodd">
        <g id="Desktop-HD-Copy-6" transform="translate(-481.000000, -117.000000)">
            <g id="Group" transform="translate(481.000000, 117.000000)">
                <g id="Group-3" transform="translate(0.000000, 2.088900)">
                    <mask id="mask-2" fill="white">
                        <use xlink:href="#path-1"></use>
                    </mask>
                    <g id="Clip-2"></g>
                    <path d="M58.0692692,0.215195902 C58.9796538,0.215195902 59.5865769,0.917269672 59.5865769,1.71882295 L59.5865769,67.9870402 C59.5865769,68.6879705 58.9796538,69.3900443 58.0692692,69.3900443 L40.5677308,69.3900443 C39.8592692,69.3900443 38.9488846,68.8892164 38.4435,68.0865197 L20.8404231,36.9082697 L20.8404231,67.9870402 C20.8404231,68.6879705 20.2335,69.3900443 19.3231154,69.3900443 L1.41657692,69.3900443 C0.607730769,69.3900443 -0.000346153846,68.6879705 -0.000346153846,67.9870402 L-0.000346153846,1.71882295 C-0.000346153846,0.917269672 0.607730769,0.215195902 1.41657692,0.215195902 L18.9181154,0.215195902 C19.8285,0.215195902 20.8404231,0.71602377 21.2442692,1.51872049 L38.7469615,32.6969705 L38.7469615,1.71882295 C38.7469615,0.917269672 39.4554231,0.215195902 40.1627308,0.215195902 L58.0692692,0.215195902 Z" id="Fill-1" fill="#FFC602" mask="url(#mask-2)"></path>
                </g>
                <path d="M97.125,26.2489617 L91.6758023,45.4559513 L102.574198,45.4559513 L97.125,26.2489617 Z M132.649533,70.5256903 C132.952266,71.1321418 132.548238,71.8389 131.741333,71.8389 L111.75864,71.8389 C110.85044,71.8389 110.043535,71.333908 109.639507,70.5256903 L106.612175,59.911635 L87.6378248,59.911635 L84.6104927,70.5256903 C84.2064648,71.333908 83.3995599,71.8389 82.4913603,71.8389 L62.5086666,71.8389 C61.7017618,71.8389 61.2977338,71.1321418 61.600467,70.5256903 L84.4090543,3.4032627 C84.7117875,2.79681114 85.8214256,2.0889 86.8309199,2.0889 L107.41908,2.0889 C108.428574,2.0889 109.538212,2.79681114 109.840946,3.4032627 L132.649533,70.5256903 Z" id="Fill-4" fill="#FFC602"></path>
                <g id="Group-8" transform="translate(132.000000, 0.588900)">
                    <mask id="mask-4" fill="white">
                        <use xlink:href="#path-3"></use>
                    </mask>
                    <g id="Clip-7"></g>
                    <path d="M7.45001932,50.9002875 C7.85087727,49.8942563 8.65145114,49.5910688 9.35266705,50.0952328 C14.3593943,53.3166 20.2671955,55.5319359 23.9719909,55.5319359 C26.7757125,55.5319359 28.6772182,54.1228031 28.6772182,52.0085297 C28.6772182,43.0461234 0.340786364,46.3697016 0.340786364,22.7072953 C0.340786364,9.21430313 10.4535989,0.251896875 25.6747807,0.251896875 C33.2842295,0.251896875 42.1956102,3.27343594 48.1034114,7.70410781 C48.6036273,8.10606094 48.8046273,8.7112875 48.5042693,9.31536562 L41.5948943,21.5990531 C41.0935364,22.5051703 40.3934625,22.8072094 39.6922466,22.4052563 C35.0863773,19.7868188 29.879792,18.0744984 26.4753545,18.0744984 C23.571133,18.0744984 21.5679852,19.5846938 21.5679852,21.8011781 C21.5679852,29.4532172 49.9055591,25.8276 49.9055591,50.2962094 C49.9055591,63.7892016 39.5928886,72.7504594 24.1718489,72.7504594 C16.661758,72.7504594 7.75037727,69.7300688 1.84257614,65.2993969 C1.34236023,64.8974438 1.14250227,64.2922172 1.44171818,63.6881391 L7.45001932,50.9002875 Z" id="Fill-6" fill="#FFC602" mask="url(#mask-4)"></path>
                </g>
                <path d="M235.571574,2.0889 C236.482385,2.0889 237.089592,2.79681114 236.989161,3.50472227 L235.469988,18.8689304 C235.369556,19.6783011 234.559177,20.2847527 233.850383,20.2847527 L220.79427,20.2847527 L220.79427,70.4242307 C220.79427,71.1309889 220.187062,71.8389 219.377837,71.8389 L201.46291,71.8389 C200.65253,71.8389 199.944891,71.1309889 199.944891,70.4242307 L199.944891,20.2847527 L185.167587,20.2847527 C184.458793,20.2847527 183.75,19.6783011 183.75,18.8689304 L183.75,3.6050289 C183.75,2.79681114 184.458793,2.0889 185.167587,2.0889 L235.571574,2.0889 Z" id="Fill-9" fill="#FEFEFE"></path>
                <path d="M257.266692,37.0647384 C257.266692,47.0679066 263.430989,53.7370696 272.625,53.7370696 C281.820163,53.7370696 287.983308,47.0679066 287.983308,37.0647384 C287.983308,27.0615702 281.820163,20.3924072 272.625,20.3924072 C263.430989,20.3924072 257.266692,27.0615702 257.266692,37.0647384 M309,36.9633238 C309,58.789361 294.450691,73.3389 272.625,73.3389 C250.800461,73.3389 236.25,58.789361 236.25,36.9633238 C236.25,15.138439 250.800461,0.5889 272.625,0.5889 C294.450691,0.5889 309,15.138439 309,36.9633238" id="Fill-11" fill="#FEFEFE"></path>
                <path d="M369.889465,2.0889 C371.095485,2.0889 372,2.89807375 372,3.8088271 L372,46.4168465 C372,62.6107104 360.339895,73.3389 342.750573,73.3389 C325.160105,73.3389 313.5,62.6107104 313.5,46.4168465 L313.5,3.8088271 C313.5,2.89807375 314.405661,2.0889 315.611682,2.0889 L332.095867,2.0889 C333.000382,2.0889 334.307286,2.89807375 334.307286,3.8088271 L334.307286,46.8220106 C334.307286,51.8825209 337.724725,55.2219498 342.750573,55.2219498 C347.776421,55.2219498 351.192714,51.8825209 351.192714,46.8220106 L351.192714,3.8088271 C351.192714,2.89807375 352.500764,2.0889 353.405279,2.0889 L369.889465,2.0889 Z" id="Fill-13" fill="#FEFEFE"></path>
                <path d="M405.574525,31.0002675 C409.002064,31.0002675 411.32198,28.877687 411.32198,25.6425101 C411.32198,22.4073331 409.002064,20.2847527 405.574525,20.2847527 L399.624638,20.2847527 L399.624638,31.0002675 L405.574525,31.0002675 Z M436.331519,70.2224645 C436.836448,71.1321418 436.130237,71.8389 435.222744,71.8389 L414.75182,71.8389 C413.743111,71.8389 412.834468,71.1321418 412.431905,70.2224645 L403.557107,49.5996526 C402.649614,47.3767655 401.138276,46.264169 399.624638,46.4670882 L399.624638,70.4242307 C399.624638,71.1321418 398.918426,71.8389 398.010933,71.8389 L380.262488,71.8389 C379.456211,71.8389 378.75,71.1321418 378.75,70.4242307 L378.75,3.6050289 C378.75,2.79681114 379.456211,2.0889 380.262488,2.0889 L406.885731,2.0889 C422.415477,2.0889 432.701547,11.1868263 432.701547,24.934599 C432.701547,33.0213884 428.364214,40.1996534 421.407918,43.7369032 L436.331519,70.2224645 Z" id="Fill-15" fill="#FEFEFE"></path>
                <g id="Group-19" transform="translate(438.750000, 0.588900)">
                    <mask id="mask-6" fill="white">
                        <use xlink:href="#path-5"></use>
                    </mask>
                    <g id="Clip-18"></g>
                    <path d="M7.12887614,50.9002875 C7.52973409,49.8942563 8.33030795,49.5910688 9.03152386,50.0952328 C14.0382511,53.3166 19.9460523,55.5319359 23.6508477,55.5319359 C26.4545693,55.5319359 28.357217,54.1228031 28.357217,52.0085297 C28.357217,43.0461234 0.0196431818,46.3697016 0.0196431818,22.7072953 C0.0196431818,9.21430313 10.1335977,0.251896875 25.3524955,0.251896875 C32.9630864,0.251896875 41.874467,3.27343594 47.7822682,7.70410781 C48.2824841,8.10606094 48.4834841,8.7112875 48.1819841,9.31536562 L41.2737511,21.5990531 C40.7735352,22.5051703 40.0723193,22.8072094 39.3711034,22.4052563 C34.7652341,19.7868188 29.5586489,18.0744984 26.1542114,18.0744984 C23.2499898,18.0744984 21.246842,19.5846938 21.246842,21.8011781 C21.246842,29.4532172 49.5844159,25.8276 49.5844159,50.2962094 C49.5844159,63.7892016 39.2717455,72.7504594 23.8518477,72.7504594 C16.3406148,72.7504594 7.42923409,69.7300688 1.52143295,65.2993969 C1.020075,64.8974438 0.821359091,64.2922172 1.120575,63.6881391 L7.12887614,50.9002875 Z" id="Fill-17" fill="#FEFEFE" mask="url(#mask-6)"></path>
                </g>
                <g id="Group-22" transform="translate(492.750000, 56.088900)">
                    <mask id="mask-8" fill="white">
                        <use xlink:href="#path-7"></use>
                    </mask>
                    <g id="Clip-21"></g>
                    <path d="M8.8912125,17.14972 C3.6633375,17.14972 0.2107125,13.82162 0.2107125,8.88237 C0.2107125,3.84077 3.6633375,0.41147 8.8912125,0.41147 C14.1179625,0.41147 17.5705875,3.84077 17.5705875,8.88237 C17.5705875,13.82162 14.1179625,17.14972 8.8912125,17.14972" id="Fill-20" fill="#FFC602" mask="url(#mask-8)"></path>
                </g>
                <g id="Group-3" transform="translate(0.000000, 2.088900)">
                    <mask id="mask-10" fill="white">
                        <use xlink:href="#path-9"></use>
                    </mask>
                    <g id="Clip-2"></g>
                    <path d="M58.0692692,0.215195902 C58.9796538,0.215195902 59.5865769,0.917269672 59.5865769,1.71882295 L59.5865769,67.9870402 C59.5865769,68.6879705 58.9796538,69.3900443 58.0692692,69.3900443 L40.5677308,69.3900443 C39.8592692,69.3900443 38.9488846,68.8892164 38.4435,68.0865197 L20.8404231,36.9082697 L20.8404231,67.9870402 C20.8404231,68.6879705 20.2335,69.3900443 19.3231154,69.3900443 L1.41657692,69.3900443 C0.607730769,69.3900443 -0.000346153846,68.6879705 -0.000346153846,67.9870402 L-0.000346153846,1.71882295 C-0.000346153846,0.917269672 0.607730769,0.215195902 1.41657692,0.215195902 L18.9181154,0.215195902 C19.8285,0.215195902 20.8404231,0.71602377 21.2442692,1.51872049 L38.7469615,32.6969705 L38.7469615,1.71882295 C38.7469615,0.917269672 39.4554231,0.215195902 40.1627308,0.215195902 L58.0692692,0.215195902 Z" id="Fill-1" fill="#FFC602" mask="url(#mask-10)"></path>
                </g>
                <path d="M97.125,26.2489617 L91.6758023,45.4559513 L102.574198,45.4559513 L97.125,26.2489617 Z M132.649533,70.5256903 C132.952266,71.1321418 132.548238,71.8389 131.741333,71.8389 L111.75864,71.8389 C110.85044,71.8389 110.043535,71.333908 109.639507,70.5256903 L106.612175,59.911635 L87.6378248,59.911635 L84.6104927,70.5256903 C84.2064648,71.333908 83.3995599,71.8389 82.4913603,71.8389 L62.5086666,71.8389 C61.7017618,71.8389 61.2977338,71.1321418 61.600467,70.5256903 L84.4090543,3.4032627 C84.7117875,2.79681114 85.8214256,2.0889 86.8309199,2.0889 L107.41908,2.0889 C108.428574,2.0889 109.538212,2.79681114 109.840946,3.4032627 L132.649533,70.5256903 Z" id="Fill-4" fill="#FFC602"></path>
                <g id="Group-8" transform="translate(132.000000, 0.588900)">
                    <mask id="mask-12" fill="white">
                        <use xlink:href="#path-11"></use>
                    </mask>
                    <g id="Clip-7"></g>
                    <path d="M7.45001932,50.9002875 C7.85087727,49.8942563 8.65145114,49.5910688 9.35266705,50.0952328 C14.3593943,53.3166 20.2671955,55.5319359 23.9719909,55.5319359 C26.7757125,55.5319359 28.6772182,54.1228031 28.6772182,52.0085297 C28.6772182,43.0461234 0.340786364,46.3697016 0.340786364,22.7072953 C0.340786364,9.21430313 10.4535989,0.251896875 25.6747807,0.251896875 C33.2842295,0.251896875 42.1956102,3.27343594 48.1034114,7.70410781 C48.6036273,8.10606094 48.8046273,8.7112875 48.5042693,9.31536562 L41.5948943,21.5990531 C41.0935364,22.5051703 40.3934625,22.8072094 39.6922466,22.4052563 C35.0863773,19.7868188 29.879792,18.0744984 26.4753545,18.0744984 C23.571133,18.0744984 21.5679852,19.5846938 21.5679852,21.8011781 C21.5679852,29.4532172 49.9055591,25.8276 49.9055591,50.2962094 C49.9055591,63.7892016 39.5928886,72.7504594 24.1718489,72.7504594 C16.661758,72.7504594 7.75037727,69.7300688 1.84257614,65.2993969 C1.34236023,64.8974438 1.14250227,64.2922172 1.44171818,63.6881391 L7.45001932,50.9002875 Z" id="Fill-6" fill="#FFC602" mask="url(#mask-12)"></path>
                </g>
                <path d="M235.571574,2.0889 C236.482385,2.0889 237.089592,2.79681114 236.989161,3.50472227 L235.469988,18.8689304 C235.369556,19.6783011 234.559177,20.2847527 233.850383,20.2847527 L220.79427,20.2847527 L220.79427,70.4242307 C220.79427,71.1309889 220.187062,71.8389 219.377837,71.8389 L201.46291,71.8389 C200.65253,71.8389 199.944891,71.1309889 199.944891,70.4242307 L199.944891,20.2847527 L185.167587,20.2847527 C184.458793,20.2847527 183.75,19.6783011 183.75,18.8689304 L183.75,3.6050289 C183.75,2.79681114 184.458793,2.0889 185.167587,2.0889 L235.571574,2.0889 Z" id="Fill-9" fill="#FEFEFE"></path>
                <path d="M257.266692,37.0647384 C257.266692,47.0679066 263.430989,53.7370696 272.625,53.7370696 C281.820163,53.7370696 287.983308,47.0679066 287.983308,37.0647384 C287.983308,27.0615702 281.820163,20.3924072 272.625,20.3924072 C263.430989,20.3924072 257.266692,27.0615702 257.266692,37.0647384 M309,36.9633238 C309,58.789361 294.450691,73.3389 272.625,73.3389 C250.800461,73.3389 236.25,58.789361 236.25,36.9633238 C236.25,15.138439 250.800461,0.5889 272.625,0.5889 C294.450691,0.5889 309,15.138439 309,36.9633238" id="Fill-11" fill="#FEFEFE"></path>
                <path d="M369.889465,2.0889 C371.095485,2.0889 372,2.89807375 372,3.8088271 L372,46.4168465 C372,62.6107104 360.339895,73.3389 342.750573,73.3389 C325.160105,73.3389 313.5,62.6107104 313.5,46.4168465 L313.5,3.8088271 C313.5,2.89807375 314.405661,2.0889 315.611682,2.0889 L332.095867,2.0889 C333.000382,2.0889 334.307286,2.89807375 334.307286,3.8088271 L334.307286,46.8220106 C334.307286,51.8825209 337.724725,55.2219498 342.750573,55.2219498 C347.776421,55.2219498 351.192714,51.8825209 351.192714,46.8220106 L351.192714,3.8088271 C351.192714,2.89807375 352.500764,2.0889 353.405279,2.0889 L369.889465,2.0889 Z" id="Fill-13" fill="#FEFEFE"></path>
                <path d="M405.574525,31.0002675 C409.002064,31.0002675 411.32198,28.877687 411.32198,25.6425101 C411.32198,22.4073331 409.002064,20.2847527 405.574525,20.2847527 L399.624638,20.2847527 L399.624638,31.0002675 L405.574525,31.0002675 Z M436.331519,70.2224645 C436.836448,71.1321418 436.130237,71.8389 435.222744,71.8389 L414.75182,71.8389 C413.743111,71.8389 412.834468,71.1321418 412.431905,70.2224645 L403.557107,49.5996526 C402.649614,47.3767655 401.138276,46.264169 399.624638,46.4670882 L399.624638,70.4242307 C399.624638,71.1321418 398.918426,71.8389 398.010933,71.8389 L380.262488,71.8389 C379.456211,71.8389 378.75,71.1321418 378.75,70.4242307 L378.75,3.6050289 C378.75,2.79681114 379.456211,2.0889 380.262488,2.0889 L406.885731,2.0889 C422.415477,2.0889 432.701547,11.1868263 432.701547,24.934599 C432.701547,33.0213884 428.364214,40.1996534 421.407918,43.7369032 L436.331519,70.2224645 Z" id="Fill-15" fill="#FEFEFE"></path>
                <g id="Group-19" transform="translate(438.750000, 0.588900)">
                    <mask id="mask-14" fill="white">
                        <use xlink:href="#path-13"></use>
                    </mask>
                    <g id="Clip-18"></g>
                    <path d="M7.12887614,50.9002875 C7.52973409,49.8942563 8.33030795,49.5910688 9.03152386,50.0952328 C14.0382511,53.3166 19.9460523,55.5319359 23.6508477,55.5319359 C26.4545693,55.5319359 28.357217,54.1228031 28.357217,52.0085297 C28.357217,43.0461234 0.0196431818,46.3697016 0.0196431818,22.7072953 C0.0196431818,9.21430313 10.1335977,0.251896875 25.3524955,0.251896875 C32.9630864,0.251896875 41.874467,3.27343594 47.7822682,7.70410781 C48.2824841,8.10606094 48.4834841,8.7112875 48.1819841,9.31536562 L41.2737511,21.5990531 C40.7735352,22.5051703 40.0723193,22.8072094 39.3711034,22.4052563 C34.7652341,19.7868188 29.5586489,18.0744984 26.1542114,18.0744984 C23.2499898,18.0744984 21.246842,19.5846938 21.246842,21.8011781 C21.246842,29.4532172 49.5844159,25.8276 49.5844159,50.2962094 C49.5844159,63.7892016 39.2717455,72.7504594 23.8518477,72.7504594 C16.3406148,72.7504594 7.42923409,69.7300688 1.52143295,65.2993969 C1.020075,64.8974438 0.821359091,64.2922172 1.120575,63.6881391 L7.12887614,50.9002875 Z" id="Fill-17" fill="#FEFEFE" mask="url(#mask-14)"></path>
                </g>
                <g id="Group-22" transform="translate(492.750000, 56.088900)">
                    <mask id="mask-16" fill="white">
                        <use xlink:href="#path-15"></use>
                    </mask>
                    <g id="Clip-21"></g>
                    <path d="M8.8912125,17.14972 C3.6633375,17.14972 0.2107125,13.82162 0.2107125,8.88237 C0.2107125,3.84077 3.6633375,0.41147 8.8912125,0.41147 C14.1179625,0.41147 17.5705875,3.84077 17.5705875,8.88237 C17.5705875,13.82162 14.1179625,17.14972 8.8912125,17.14972" id="Fill-20" fill="#FFC602" mask="url(#mask-16)"></path>
                </g>
            </g>
        </g>
    </g>
</svg>