<svg id="Capa_1" data-name="Capa 1" xmlns="http://www.w3.org/2000/svg" viewBox="0 0 30 30"><defs><style>.cls-1{fill:#fff;stroke:#fff;stroke-miterlimit:10;}</style></defs><title>mute-01</title><path class="cls-1" d="M26.5,16.16l2.8-2.8a.85.85,0,1,0-1.21-1.2L25.29,15l-2.8-2.8a.83.83,0,0,0-1.2,0,.85.85,0,0,0,0,1.2l2.8,2.8L21.29,19a.86.86,0,0,0,0,1.21.85.85,0,0,0,1.2,0l2.8-2.81,2.8,2.81A.86.86,0,0,0,29.3,19Z"/><path class="cls-1" d="M17.75.7A2.51,2.51,0,0,0,15,1.05L7.85,7H3.06A2.56,2.56,0,0,0,.51,9.59V20.36a2.55,2.55,0,0,0,2.55,2.55H7.85l7.19,6a2.55,2.55,0,0,0,4.18-2V3A2.52,2.52,0,0,0,17.75.7ZM7.31,21.22H3.06a.86.86,0,0,1-.85-.86V9.59a.85.85,0,0,1,.85-.85H7.31Zm10.21,5.72a.83.83,0,0,1-.49.77.84.84,0,0,1-.9-.12L9,21.67V8.28l7.12-5.92a.84.84,0,0,1,.9-.12.83.83,0,0,1,.49.77Z"/></svg>