<?xml version="1.0" encoding="UTF-8"?>
<svg width="138px" height="20px" viewBox="0 0 138 20" version="1.1" xmlns="http://www.w3.org/2000/svg" xmlns:xlink="http://www.w3.org/1999/xlink">
    <!-- Generator: Sketch 64 (93537) - https://sketch.com -->
    <title>Group Copy</title>
    <desc>Created with Sketch.</desc>
    <defs>
        <polygon id="path-1" points="0 0.0588775987 16.5759023 0.0588775987 16.5759023 18.9851161 0 18.9851161"></polygon>
        <polygon id="path-3" points="0.0954201818 0.0671725 13.9735565 0.0671725 13.9735565 19.4 0.0954201818 19.4"></polygon>
        <polygon id="path-5" points="0.00550009091 0.0671725 13.8836365 0.0671725 13.8836365 19.4 0.00550009091 19.4"></polygon>
        <polygon id="path-7" points="0.0541832143 0.105806571 4.51806429 0.105806571 4.51806429 4.409928 0.0541832143 4.409928"></polygon>
        <polygon id="path-9" points="0 0.0588775987 16.5759023 0.0588775987 16.5759023 18.9851161 0 18.9851161"></polygon>
        <polygon id="path-11" points="0.0954201818 0.0671725 13.9735565 0.0671725 13.9735565 19.4 0.0954201818 19.4"></polygon>
        <polygon id="path-13" points="0.00550009091 0.0671725 13.8836365 0.0671725 13.8836365 19.4 0.00550009091 19.4"></polygon>
        <polygon id="path-15" points="0.0541832143 0.105806571 4.51806429 0.105806571 4.51806429 4.409928 0.0541832143 4.409928"></polygon>
    </defs>
    <g id="Page-1" stroke="none" stroke-width="1" fill="none" fill-rule="evenodd">
        <g id="Landing-Page-–-1440px-Copy-9" transform="translate(-39.000000, -20.000000)">
            <g id="Group-Copy" transform="translate(39.000000, 20.000000)">
                <g id="Group-3">
                    <mask id="mask-2" fill="white">
                        <use xlink:href="#path-1"></use>
                    </mask>
                    <g id="Clip-2"></g>
                    <path d="M16.1538149,0.0588775987 C16.4070673,0.0588775987 16.5759023,0.250964982 16.5759023,0.470269959 L16.5759023,18.6012542 C16.5759023,18.7930287 16.4070673,18.9851161 16.1538149,18.9851161 L11.2852051,18.9851161 C11.088124,18.9851161 10.8348715,18.8480896 10.6942827,18.6284718 L5.79742678,10.0981026 L5.79742678,18.6012542 C5.79742678,18.7930287 5.62859182,18.9851161 5.37533937,18.9851161 L0.394065944,18.9851161 C0.16905965,18.9851161 -9.62937063e-05,18.7930287 -9.62937063e-05,18.6012542 L-9.62937063e-05,0.470269959 C-9.62937063e-05,0.250964982 0.16905965,0.0588775987 0.394065944,0.0588775987 L5.26267573,0.0588775987 C5.51592818,0.0588775987 5.79742678,0.195904104 5.90976944,0.415521927 L10.7787002,8.94589113 L10.7787002,0.470269959 C10.7787002,0.250964982 10.9757813,0.0588775987 11.1725415,0.0588775987 L16.1538149,0.0588775987 Z" id="Fill-1" fill="#FFC602" mask="url(#mask-2)"></path>
                </g>
                <path d="M26.5,6.58123543 L25.0468806,11.8132469 L27.9531194,11.8132469 L26.5,6.58123543 Z M35.9732088,18.6422798 C36.0539377,18.8074781 35.9461969,19 35.7310222,19 L30.4023039,19 C30.1601174,19 29.9449427,18.8624395 29.8372019,18.6422798 L29.0299134,15.7509959 L23.9700866,15.7509959 L23.1627981,18.6422798 C23.0550573,18.8624395 22.8398826,19 22.5976961,19 L17.2689778,19 C17.0538031,19 16.9460623,18.8074781 17.0267912,18.6422798 L23.1090811,0.358034283 C23.18981,0.192836008 23.4857135,0 23.754912,0 L29.245088,0 C29.5142865,0 29.81019,0.192836008 29.8909189,0.358034283 L35.9732088,18.6422798 Z" id="Fill-4" fill="#FFC602"></path>
                <g id="Group-8" transform="translate(35.000000, 0.000000)">
                    <mask id="mask-4" fill="white">
                        <use xlink:href="#path-3"></use>
                    </mask>
                    <g id="Clip-7"></g>
                    <path d="M2.08600541,13.57341 C2.19824564,13.305135 2.42240632,13.224285 2.61874677,13.3587288 C4.02063041,14.21776 5.67481473,14.8085163 6.71215745,14.8085163 C7.4971995,14.8085163 8.02962109,14.4327475 8.02962109,13.8689413 C8.02962109,11.4789663 0.0954201818,12.3652538 0.0954201818,6.05527875 C0.0954201818,2.4571475 2.92700768,0.0671725 7.18893859,0.0671725 C9.31958427,0.0671725 11.8147709,0.87291625 13.4689552,2.05442875 C13.6090156,2.16161625 13.6652956,2.32301 13.5811954,2.4840975 L11.6465704,5.7597475 C11.5061902,6.00137875 11.3101695,6.0819225 11.113829,5.974735 C9.82418564,5.276485 8.36634177,4.81986625 7.41309927,4.81986625 C6.59991723,4.81986625 6.03903586,5.222585 6.03903586,5.8136475 C6.03903586,7.85419125 13.9735565,6.88736 13.9735565,13.4123225 C13.9735565,17.0104538 11.0860088,19.4001225 6.76811768,19.4001225 C4.66529223,19.4001225 2.17010564,18.594685 0.515921318,17.4131725 C0.375860864,17.305985 0.319900636,17.1445913 0.403681091,16.9835038 L2.08600541,13.57341 Z" id="Fill-6" fill="#FFC602" mask="url(#mask-4)"></path>
                </g>
                <path d="M63.6244513,0 C63.8639134,0 64.0235548,0.192836008 63.9971502,0.385672017 L63.5977433,4.57090434 C63.5713387,4.79137808 63.3582812,4.95657636 63.1719317,4.95657636 L59.7393385,4.95657636 L59.7393385,18.614642 C59.7393385,18.807164 59.5796971,19 59.3669431,19 L54.6569152,19 C54.4438577,19 54.2578118,18.807164 54.2578118,18.614642 L54.2578118,4.95657636 L50.3726989,4.95657636 C50.1863494,4.95657636 50,4.79137808 50,4.57090434 L50,0.412995686 C50,0.192836008 50.1863494,0 50.3726989,0 L63.6244513,0 Z" id="Fill-9" fill="#FEFEFE"></path>
                <path d="M69.7777848,10.0277219 C69.7777848,12.7777338 71.472437,14.6111806 74,14.6111806 C76.5278799,14.6111806 78.2222152,12.7777338 78.2222152,10.0277219 C78.2222152,7.27771001 76.5278799,5.44426315 74,5.44426315 C71.472437,5.44426315 69.7777848,7.27771001 69.7777848,10.0277219 M84,9.99984159 C84,16.0001267 80.0001901,20 74,20 C68.0001267,20 64,16.0001267 64,9.99984159 C64,3.99987327 68.0001267,0 74,0 C80.0001901,0 84,3.99987327 84,9.99984159" id="Fill-11" fill="#FEFEFE"></path>
                <path d="M100.42276,1 C100.752611,1 101,1.21577967 101,1.45864723 L101,12.8207857 C101,17.1391495 97.8109114,20 93.0001568,20 C88.1890886,20 85,17.1391495 85,12.8207857 L85,1.45864723 C85,1.21577967 85.2477023,1 85.5775539,1 L90.0860491,1 C90.3334378,1 90.6908817,1.21577967 90.6908817,1.45864723 L90.6908817,12.9288295 C90.6908817,14.2782989 91.6255659,15.1688133 93.0001568,15.1688133 C94.3747477,15.1688133 95.3091183,14.2782989 95.3091183,12.9288295 L95.3091183,1.45864723 C95.3091183,1.21577967 95.6668757,1 95.9142644,1 L100.42276,1 Z" id="Fill-13" fill="#FEFEFE"></path>
                <path d="M109.431903,7.87549796 C110.381524,7.87549796 111.024271,7.297304 111.024271,6.41603716 C111.024271,5.53477032 110.381524,4.95657636 109.431903,4.95657636 L107.783449,4.95657636 L107.783449,7.87549796 L109.431903,7.87549796 Z M117.953321,18.5596806 C118.093215,18.8074781 117.897555,19 117.646128,19 L111.97453,19 C111.695061,19 111.443316,18.8074781 111.331783,18.5596806 L108.872965,12.9419971 C108.621538,12.3364795 108.202812,12.0334066 107.783449,12.0886821 L107.783449,18.614642 C107.783449,18.8074781 107.587789,19 107.336363,19 L102.419044,19 C102.19566,19 102,18.8074781 102,18.614642 L102,0.412995686 C102,0.192836008 102.19566,0 102.419044,0 L109.795181,0 C114.097794,0 116.947615,2.47828818 116.947615,6.22320115 C116.947615,8.42605418 115.745929,10.3814239 113.818644,11.3449758 L117.953321,18.5596806 Z" id="Fill-15" fill="#FEFEFE"></path>
                <g id="Group-19" transform="translate(118.000000, 0.000000)">
                    <mask id="mask-6" fill="white">
                        <use xlink:href="#path-5"></use>
                    </mask>
                    <g id="Clip-18"></g>
                    <path d="M1.99608532,13.57341 C2.10832555,13.305135 2.33248623,13.224285 2.52882668,13.3587288 C3.93071032,14.21776 5.58489464,14.8085163 6.62223736,14.8085163 C7.40727941,14.8085163 7.94002077,14.4327475 7.94002077,13.8689413 C7.94002077,11.4789663 0.00550009091,12.3652538 0.00550009091,6.05527875 C0.00550009091,2.4571475 2.83740736,0.0671725 7.09869873,0.0671725 C9.22966418,0.0671725 11.7248508,0.87291625 13.3790351,2.05442875 C13.5190955,2.16161625 13.5753755,2.32301 13.4909555,2.4840975 L11.5566503,5.7597475 C11.4165899,6.00137875 11.2202494,6.0819225 11.023909,5.974735 C9.73426555,5.276485 8.27642168,4.81986625 7.32317918,4.81986625 C6.50999714,4.81986625 5.94911577,5.222585 5.94911577,5.8136475 C5.94911577,7.85419125 13.8836365,6.88736 13.8836365,13.4123225 C13.8836365,17.0104538 10.9960887,19.4001225 6.67851736,19.4001225 C4.57537214,19.4001225 2.08018555,18.594685 0.426001227,17.4131725 C0.285621,17.305985 0.229980545,17.1445913 0.313761,16.9835038 L1.99608532,13.57341 Z" id="Fill-17" fill="#FEFEFE" mask="url(#mask-6)"></path>
                </g>
                <g id="Group-22" transform="translate(133.000000, 15.000000)">
                    <mask id="mask-8" fill="white">
                        <use xlink:href="#path-7"></use>
                    </mask>
                    <g id="Clip-21"></g>
                    <path d="M2.28631179,4.409928 C0.942001071,4.409928 0.0541832143,3.55413086 0.0541832143,2.284038 C0.0541832143,0.987626571 0.942001071,0.105806571 2.28631179,0.105806571 C3.63033321,0.105806571 4.51815107,0.987626571 4.51815107,2.284038 C4.51815107,3.55413086 3.63033321,4.409928 2.28631179,4.409928" id="Fill-20" fill="#FFC602" mask="url(#mask-8)"></path>
                </g>
                <g id="Group-3">
                    <mask id="mask-10" fill="white">
                        <use xlink:href="#path-9"></use>
                    </mask>
                    <g id="Clip-2"></g>
                    <path d="M16.1538149,0.0588775987 C16.4070673,0.0588775987 16.5759023,0.250964982 16.5759023,0.470269959 L16.5759023,18.6012542 C16.5759023,18.7930287 16.4070673,18.9851161 16.1538149,18.9851161 L11.2852051,18.9851161 C11.088124,18.9851161 10.8348715,18.8480896 10.6942827,18.6284718 L5.79742678,10.0981026 L5.79742678,18.6012542 C5.79742678,18.7930287 5.62859182,18.9851161 5.37533937,18.9851161 L0.394065944,18.9851161 C0.16905965,18.9851161 -9.62937063e-05,18.7930287 -9.62937063e-05,18.6012542 L-9.62937063e-05,0.470269959 C-9.62937063e-05,0.250964982 0.16905965,0.0588775987 0.394065944,0.0588775987 L5.26267573,0.0588775987 C5.51592818,0.0588775987 5.79742678,0.195904104 5.90976944,0.415521927 L10.7787002,8.94589113 L10.7787002,0.470269959 C10.7787002,0.250964982 10.9757813,0.0588775987 11.1725415,0.0588775987 L16.1538149,0.0588775987 Z" id="Fill-1" fill="#FFC602" mask="url(#mask-10)"></path>
                </g>
                <path d="M26.5,6.58123543 L25.0468806,11.8132469 L27.9531194,11.8132469 L26.5,6.58123543 Z M35.9732088,18.6422798 C36.0539377,18.8074781 35.9461969,19 35.7310222,19 L30.4023039,19 C30.1601174,19 29.9449427,18.8624395 29.8372019,18.6422798 L29.0299134,15.7509959 L23.9700866,15.7509959 L23.1627981,18.6422798 C23.0550573,18.8624395 22.8398826,19 22.5976961,19 L17.2689778,19 C17.0538031,19 16.9460623,18.8074781 17.0267912,18.6422798 L23.1090811,0.358034283 C23.18981,0.192836008 23.4857135,0 23.754912,0 L29.245088,0 C29.5142865,0 29.81019,0.192836008 29.8909189,0.358034283 L35.9732088,18.6422798 Z" id="Fill-4" fill="#FFC602"></path>
                <g id="Group-8" transform="translate(35.000000, 0.000000)">
                    <mask id="mask-12" fill="white">
                        <use xlink:href="#path-11"></use>
                    </mask>
                    <g id="Clip-7"></g>
                    <path d="M2.08600541,13.57341 C2.19824564,13.305135 2.42240632,13.224285 2.61874677,13.3587288 C4.02063041,14.21776 5.67481473,14.8085163 6.71215745,14.8085163 C7.4971995,14.8085163 8.02962109,14.4327475 8.02962109,13.8689413 C8.02962109,11.4789663 0.0954201818,12.3652538 0.0954201818,6.05527875 C0.0954201818,2.4571475 2.92700768,0.0671725 7.18893859,0.0671725 C9.31958427,0.0671725 11.8147709,0.87291625 13.4689552,2.05442875 C13.6090156,2.16161625 13.6652956,2.32301 13.5811954,2.4840975 L11.6465704,5.7597475 C11.5061902,6.00137875 11.3101695,6.0819225 11.113829,5.974735 C9.82418564,5.276485 8.36634177,4.81986625 7.41309927,4.81986625 C6.59991723,4.81986625 6.03903586,5.222585 6.03903586,5.8136475 C6.03903586,7.85419125 13.9735565,6.88736 13.9735565,13.4123225 C13.9735565,17.0104538 11.0860088,19.4001225 6.76811768,19.4001225 C4.66529223,19.4001225 2.17010564,18.594685 0.515921318,17.4131725 C0.375860864,17.305985 0.319900636,17.1445913 0.403681091,16.9835038 L2.08600541,13.57341 Z" id="Fill-6" fill="#FFC602" mask="url(#mask-12)"></path>
                </g>
                <path d="M63.6244513,0 C63.8639134,0 64.0235548,0.192836008 63.9971502,0.385672017 L63.5977433,4.57090434 C63.5713387,4.79137808 63.3582812,4.95657636 63.1719317,4.95657636 L59.7393385,4.95657636 L59.7393385,18.614642 C59.7393385,18.807164 59.5796971,19 59.3669431,19 L54.6569152,19 C54.4438577,19 54.2578118,18.807164 54.2578118,18.614642 L54.2578118,4.95657636 L50.3726989,4.95657636 C50.1863494,4.95657636 50,4.79137808 50,4.57090434 L50,0.412995686 C50,0.192836008 50.1863494,0 50.3726989,0 L63.6244513,0 Z" id="Fill-9" fill="#070504"></path>
                <path d="M69.7777848,10.0277219 C69.7777848,12.7777338 71.472437,14.6111806 74,14.6111806 C76.5278799,14.6111806 78.2222152,12.7777338 78.2222152,10.0277219 C78.2222152,7.27771001 76.5278799,5.44426315 74,5.44426315 C71.472437,5.44426315 69.7777848,7.27771001 69.7777848,10.0277219 M84,9.99984159 C84,16.0001267 80.0001901,20 74,20 C68.0001267,20 64,16.0001267 64,9.99984159 C64,3.99987327 68.0001267,0 74,0 C80.0001901,0 84,3.99987327 84,9.99984159" id="Fill-11" fill="#070504"></path>
                <path d="M100.42276,1 C100.752611,1 101,1.21577967 101,1.45864723 L101,12.8207857 C101,17.1391495 97.8109114,20 93.0001568,20 C88.1890886,20 85,17.1391495 85,12.8207857 L85,1.45864723 C85,1.21577967 85.2477023,1 85.5775539,1 L90.0860491,1 C90.3334378,1 90.6908817,1.21577967 90.6908817,1.45864723 L90.6908817,12.9288295 C90.6908817,14.2782989 91.6255659,15.1688133 93.0001568,15.1688133 C94.3747477,15.1688133 95.3091183,14.2782989 95.3091183,12.9288295 L95.3091183,1.45864723 C95.3091183,1.21577967 95.6668757,1 95.9142644,1 L100.42276,1 Z" id="Fill-13" fill="#070504"></path>
                <path d="M109.431903,7.87549796 C110.381524,7.87549796 111.024271,7.297304 111.024271,6.41603716 C111.024271,5.53477032 110.381524,4.95657636 109.431903,4.95657636 L107.783449,4.95657636 L107.783449,7.87549796 L109.431903,7.87549796 Z M117.953321,18.5596806 C118.093215,18.8074781 117.897555,19 117.646128,19 L111.97453,19 C111.695061,19 111.443316,18.8074781 111.331783,18.5596806 L108.872965,12.9419971 C108.621538,12.3364795 108.202812,12.0334066 107.783449,12.0886821 L107.783449,18.614642 C107.783449,18.8074781 107.587789,19 107.336363,19 L102.419044,19 C102.19566,19 102,18.8074781 102,18.614642 L102,0.412995686 C102,0.192836008 102.19566,0 102.419044,0 L109.795181,0 C114.097794,0 116.947615,2.47828818 116.947615,6.22320115 C116.947615,8.42605418 115.745929,10.3814239 113.818644,11.3449758 L117.953321,18.5596806 Z" id="Fill-15" fill="#070504"></path>
                <g id="Group-19" transform="translate(118.000000, 0.000000)">
                    <mask id="mask-14" fill="white">
                        <use xlink:href="#path-13"></use>
                    </mask>
                    <g id="Clip-18"></g>
                    <path d="M1.99608532,13.57341 C2.10832555,13.305135 2.33248623,13.224285 2.52882668,13.3587288 C3.93071032,14.21776 5.58489464,14.8085163 6.62223736,14.8085163 C7.40727941,14.8085163 7.94002077,14.4327475 7.94002077,13.8689413 C7.94002077,11.4789663 0.00550009091,12.3652538 0.00550009091,6.05527875 C0.00550009091,2.4571475 2.83740736,0.0671725 7.09869873,0.0671725 C9.22966418,0.0671725 11.7248508,0.87291625 13.3790351,2.05442875 C13.5190955,2.16161625 13.5753755,2.32301 13.4909555,2.4840975 L11.5566503,5.7597475 C11.4165899,6.00137875 11.2202494,6.0819225 11.023909,5.974735 C9.73426555,5.276485 8.27642168,4.81986625 7.32317918,4.81986625 C6.50999714,4.81986625 5.94911577,5.222585 5.94911577,5.8136475 C5.94911577,7.85419125 13.8836365,6.88736 13.8836365,13.4123225 C13.8836365,17.0104538 10.9960887,19.4001225 6.67851736,19.4001225 C4.57537214,19.4001225 2.08018555,18.594685 0.426001227,17.4131725 C0.285621,17.305985 0.229980545,17.1445913 0.313761,16.9835038 L1.99608532,13.57341 Z" id="Fill-17" fill="#070504" mask="url(#mask-14)"></path>
                </g>
                <g id="Group-22" transform="translate(133.000000, 15.000000)">
                    <mask id="mask-16" fill="white">
                        <use xlink:href="#path-15"></use>
                    </mask>
                    <g id="Clip-21"></g>
                    <path d="M2.28631179,4.409928 C0.942001071,4.409928 0.0541832143,3.55413086 0.0541832143,2.284038 C0.0541832143,0.987626571 0.942001071,0.105806571 2.28631179,0.105806571 C3.63033321,0.105806571 4.51815107,0.987626571 4.51815107,2.284038 C4.51815107,3.55413086 3.63033321,4.409928 2.28631179,4.409928" id="Fill-20" fill="#FFC602" mask="url(#mask-16)"></path>
                </g>
            </g>
        </g>
    </g>
</svg>