<?xml version="1.0" encoding="utf-8"?>
<!-- Generator: Adobe Illustrator 24.0.1, SVG Export Plug-In . SVG Version: 6.00 Build 0)  -->
<svg version="1.1" id="Capa_1" xmlns="http://www.w3.org/2000/svg" xmlns:xlink="http://www.w3.org/1999/xlink" x="0px" y="0px"
	 viewBox="0 0 841.9 237.2" style="enable-background:new 0 0 841.9 237.2;" xml:space="preserve">
<style type="text/css">
	.st0{fill:#FCCC00;}
	.st1{fill:#FFFFFF;}
</style>
<g>
	<path class="st0" d="M144.9,40.3c1.3,0,2.1,1,2.1,2.1v93c0,1-0.8,2-2.1,2h-24.3c-1,0-2.3-0.7-3-1.8L93.2,91.7v43.6c0,1-0.8,2-2.1,2
		H66.2c-1.1,0-2-1-2-2v-93c0-1.1,0.8-2.1,2-2.1h24.3c1.3,0,2.7,0.7,3.2,1.8l24.3,43.7V42.4c0-1.1,1-2.1,2-2.1H144.9z"/>
	<path class="st0" d="M249.9,135.5c0.4,0.8-0.1,1.8-1.3,1.8h-27.8c-1.3,0-2.4-0.7-3-1.8l-4.2-14.8h-26.4l-4.2,14.8
		c-0.6,1.1-1.7,1.8-3,1.8h-27.8c-1.1,0-1.7-1-1.3-1.8l31.8-93.4c0.4-0.8,2-1.8,3.4-1.8h28.7c1.4,0,3,1,3.4,1.8L249.9,135.5z
		 M200.4,73.9l-7.6,26.7h15.2L200.4,73.9z"/>
	<path class="st0" d="M259.1,108.9c0.6-1.4,1.7-1.8,2.7-1.1c7,4.5,15.3,7.6,20.5,7.6c3.9,0,6.6-2,6.6-4.9c0-12.5-39.8-7.9-39.8-40.9
		c0-18.8,14.2-31.4,35.6-31.4c10.7,0,23.2,4.2,31.5,10.4c0.7,0.6,1,1.4,0.6,2.3L307.1,68c-0.7,1.3-1.7,1.7-2.7,1.1
		c-6.5-3.7-13.8-6-18.6-6c-4.1,0-6.9,2.1-6.9,5.2c0,10.7,39.8,5.6,39.8,39.8c0,18.8-14.5,31.4-36.1,31.4c-10.5,0-23.1-4.2-31.4-10.4
		c-0.7-0.6-1-1.4-0.6-2.3L259.1,108.9z"/>
	<path class="st1" d="M393.6,40.3c1.3,0,2.1,1,2,2l-2.1,21.4c-0.1,1.1-1.3,2-2.3,2h-18.1v69.8c0,1-0.8,2-2,2h-24.9
		c-1.1,0-2.1-1-2.1-2V65.6h-20.5c-1,0-2-0.8-2-2V42.4c0-1.1,1-2.1,2-2.1H393.6z"/>
	<path class="st1" d="M495.4,88.6c0,30.4-20.3,50.6-50.6,50.6c-30.4,0-50.6-20.3-50.6-50.6c0-30.4,20.3-50.6,50.6-50.6
		C475.2,38,495.4,58.3,495.4,88.6z M423.4,88.8c0,13.9,8.6,23.2,21.4,23.2s21.4-9.3,21.4-23.2s-8.6-23.2-21.4-23.2
		S423.4,74.9,423.4,88.8z"/>
	<path class="st1" d="M581.4,40.3c1.7,0,3,1.1,3,2.4v59.2c0,22.5-16.3,37.4-40.9,37.4c-24.6,0-40.9-14.9-40.9-37.4V42.6
		c0-1.3,1.3-2.4,3-2.4h23.1c1.3,0,3.1,1.1,3.1,2.4v59.8c0,7,4.8,11.7,11.8,11.7c7,0,11.8-4.6,11.8-11.7V42.6c0-1.3,1.8-2.4,3.1-2.4
		H581.4z"/>
	<path class="st1" d="M673.9,135.1c0.7,1.3-0.3,2.3-1.5,2.3h-28.6c-1.4,0-2.7-1-3.2-2.3l-12.4-28.7c-1.3-3.1-3.4-4.6-5.5-4.4v33.3
		c0,1-1,2-2.3,2h-24.8c-1.1,0-2.1-1-2.1-2v-93c0-1.1,1-2.1,2.1-2.1h37.1c21.7,0,36,12.7,36,31.8c0,11.3-6,21.2-15.8,26.2
		L673.9,135.1z M631,80.5c4.8,0,8-3,8-7.5s-3.2-7.5-8-7.5h-8.3v14.9H631z"/>
	<path class="st1" d="M687,108.9c0.6-1.4,1.7-1.8,2.7-1.1c7,4.5,15.3,7.6,20.5,7.6c3.9,0,6.6-2,6.6-4.9c0-12.5-39.8-7.9-39.8-40.9
		c0-18.8,14.2-31.4,35.6-31.4c10.7,0,23.2,4.2,31.5,10.4c0.7,0.6,1,1.4,0.6,2.3L735,68c-0.7,1.3-1.7,1.7-2.7,1.1
		c-6.5-3.7-13.8-6-18.6-6c-4.1,0-6.9,2.1-6.9,5.2c0,10.7,39.8,5.6,39.8,39.8c0,18.8-14.5,31.4-36.1,31.4c-10.5,0-23.1-4.2-31.4-10.4
		c-0.7-0.6-1-1.4-0.6-2.3L687,108.9z"/>
	<path class="st0" d="M765.1,139.3c-7.5,0-12.4-4.6-12.4-11.5c0-7,4.9-11.8,12.4-11.8c7.5,0,12.4,4.8,12.4,11.8
		C777.5,134.6,772.5,139.3,765.1,139.3z"/>
</g>
<g>
	<path class="st1" d="M216.4,202.3l12.9-28.5l3.4,0l-15.4,33l-3.4,0l-3.6-30l-14,29.9l-3.4,0l-3.4-33.1l3.1,0l2.7,28.6l13.5-28.5
		l4,0L216.4,202.3z"/>
	<path class="st1" d="M243.4,182.7c0.9,0,1.7,0.1,2.4,0.4c0.8,0.2,1.4,0.6,2,1c0.6,0.5,1,1,1.3,1.7c0.3,0.7,0.5,1.4,0.5,2.3
		c0,1.1-0.3,2.1-0.8,2.9c-0.5,0.8-1.2,1.6-2.1,2.1c-0.8,0.6-1.8,1.1-2.9,1.5c-1.1,0.4-2.2,0.7-3.4,1c-1.2,0.2-2.3,0.4-3.5,0.5
		c-1.1,0.1-2.2,0.2-3.2,0.2c-0.1,0.7-0.2,1.4-0.2,2c0,1.9,0.4,3.4,1.3,4.6c0.9,1.2,2.3,1.8,4.3,1.8c1.2,0,2.3-0.2,3.4-0.5
		c1.1-0.3,2.2-0.8,3.2-1.3l0.6,2.4c-1.1,0.6-2.2,1.1-3.5,1.4c-1.3,0.3-2.6,0.5-4,0.5c-1.5,0-2.7-0.3-3.8-0.7c-1.1-0.5-1.9-1.1-2.6-2
		c-0.7-0.8-1.2-1.8-1.6-2.9c-0.3-1.1-0.5-2.3-0.5-3.6c0-1.9,0.3-3.8,0.9-5.7c0.6-1.9,1.4-3.5,2.5-5c1.1-1.5,2.4-2.6,4-3.5
		C239.5,183.2,241.3,182.7,243.4,182.7z M242.9,185.2c-1.1,0-2.2,0.2-3.1,0.7s-1.8,1.2-2.6,2c-0.8,0.8-1.4,1.7-1.9,2.8
		c-0.5,1-0.9,2.1-1.1,3.1c1.2,0,2.5-0.1,3.9-0.3c1.4-0.2,2.7-0.5,3.9-0.9c1.2-0.4,2.2-1,3.1-1.7c0.8-0.7,1.3-1.6,1.3-2.7
		c0-0.9-0.3-1.6-0.9-2.1C244.9,185.5,244.1,185.2,242.9,185.2z"/>
	<path class="st1" d="M277.6,200.8c0,1.1-0.2,2-0.6,2.9c-0.4,0.8-1,1.6-1.8,2.2c-0.8,0.6-1.7,1.1-2.7,1.4c-1,0.3-2.2,0.5-3.4,0.5
		c-1.3,0-2.6-0.2-3.8-0.5c-1.3-0.3-2.3-0.6-3.2-1l0.8-2.6c0.9,0.4,1.9,0.8,3,1.1c1.1,0.3,2.1,0.4,3.1,0.4c1.6,0,2.9-0.3,3.9-0.9
		c1-0.6,1.6-1.6,1.6-3c0-1.1-0.4-2-1.2-2.8c-0.8-0.8-1.8-1.6-2.9-2.3c-0.7-0.4-1.4-0.9-2-1.4c-0.6-0.5-1.2-1-1.7-1.6
		c-0.5-0.5-0.9-1.1-1.2-1.8c-0.3-0.6-0.4-1.4-0.4-2.1c0-2.1,0.7-3.7,2.2-4.7c1.4-1,3.3-1.5,5.6-1.5c1.3,0,2.5,0.2,3.7,0.4
		c1.1,0.3,2.2,0.7,3.1,1.2l-0.7,2.6c-1-0.5-2-0.9-3-1.2c-1-0.3-2-0.4-3.1-0.4c-1.2,0-2.3,0.2-3.1,0.7c-0.9,0.5-1.3,1.4-1.3,2.6
		c0,1,0.3,1.8,0.9,2.4c0.6,0.6,1.6,1.3,2.8,2.2c0.6,0.4,1.2,0.8,1.9,1.3c0.7,0.5,1.3,1,1.9,1.6s1,1.3,1.4,2
		C277.4,199.1,277.6,199.9,277.6,200.8z"/>
	<path class="st1" d="M286.6,183.5l3.1,0l-1.4,7.4c0.5-1,1.1-1.9,1.8-2.8c0.7-0.9,1.4-1.8,2.2-2.5c0.8-0.7,1.7-1.3,2.6-1.8
		s2-0.7,3.1-0.7c1,0,1.9,0.2,2.7,0.7c0.8,0.5,1.4,1.1,1.9,1.8c0.5,0.8,0.9,1.7,1.2,2.7c0.3,1,0.4,2.1,0.4,3.2c0,2.1-0.3,4.1-0.9,6.1
		c-0.6,2-1.4,3.7-2.6,5.2c-1.1,1.5-2.6,2.7-4.3,3.6c-1.7,0.9-3.7,1.4-6,1.4c-0.9,0-1.8-0.1-2.6-0.2c-0.8-0.1-1.6-0.3-2.4-0.6
		l-1.9,10.5l-3.2,0L286.6,183.5z M297.5,185.7c-0.9,0-1.8,0.3-2.7,0.9c-0.9,0.6-1.8,1.4-2.7,2.4c-0.9,1-1.7,2.1-2.5,3.4
		c-0.8,1.3-1.5,2.6-2.2,3.8l-1.5,8.1c0.7,0.3,1.4,0.5,2.1,0.6c0.8,0.1,1.5,0.2,2.3,0.2c1.8,0,3.4-0.4,4.7-1.1s2.4-1.8,3.3-3
		s1.5-2.7,1.9-4.3c0.4-1.6,0.6-3.3,0.6-5c0-0.7,0-1.5-0.2-2.2c-0.1-0.7-0.3-1.4-0.6-1.9c-0.3-0.6-0.6-1-1.1-1.4
		C298.8,185.8,298.2,185.7,297.5,185.7z"/>
	<path class="st1" d="M325.3,207.5l-3.1,0l1.6-9.2c-0.5,1-1,2.1-1.7,3.2c-0.7,1.1-1.4,2.2-2.2,3.2c-0.8,1-1.7,1.8-2.7,2.4
		c-1,0.6-2,0.9-3.1,0.9c-1.1,0-2-0.2-2.7-0.7c-0.7-0.5-1.3-1.1-1.8-1.9c-0.5-0.8-0.8-1.6-1-2.6s-0.3-2-0.3-3.1
		c0-2.1,0.3-4.1,0.9-6.1c0.6-2,1.5-3.7,2.6-5.3c1.2-1.5,2.6-2.8,4.3-3.7c1.7-0.9,3.7-1.4,5.9-1.4c1.3,0,2.7,0.1,4,0.4
		c1.3,0.3,2.5,0.6,3.5,1L325.3,207.5z M314.4,205.3c1,0,2-0.5,3-1.4c1-1,2-2.2,2.9-3.6c0.9-1.4,1.8-3,2.6-4.7
		c0.8-1.7,1.5-3.3,2.1-4.8l0.8-4.5c-1.1-0.3-2.5-0.5-4-0.5c-1.7,0-3.1,0.4-4.4,1.1c-1.3,0.7-2.4,1.7-3.3,3c-0.9,1.3-1.6,2.7-2,4.4
		c-0.5,1.7-0.7,3.4-0.7,5.2c0,0.8,0,1.5,0.1,2.2c0.1,0.7,0.2,1.3,0.5,1.8c0.2,0.5,0.5,1,0.9,1.3
		C313.3,205.2,313.8,205.3,314.4,205.3z"/>
	<path class="st1" d="M348.4,186.7c-0.2,0-0.4-0.1-0.6-0.1c-2.1,0-3.9,0.8-5.3,2.4c-1.5,1.6-2.7,3.7-3.8,6.4l-2.2,12.1l-3.2,0
		l4.3-23.7l3.2,0.1l-1.3,7.4c0.3-1.1,0.8-2,1.2-3c0.5-0.9,1.1-1.7,1.7-2.4c0.7-0.7,1.4-1.2,2.2-1.6c0.8-0.4,1.8-0.6,2.8-0.6
		c0.2,0,0.5,0,0.8,0c0.3,0,0.5,0.1,0.7,0.1L348.4,186.7z"/>
	<path class="st1" d="M349.4,207.6l6.4-35.1l3.2,0l-4.1,22.7l11.6-11.2l4.3,0l-12.4,11.9c1.2,2.1,2.7,4.1,4.3,6
		c1.6,2,3.6,3.9,5.8,5.8l-4.5,0c-0.9-0.8-1.8-1.7-2.7-2.7c-0.9-1-1.7-2-2.5-3c-0.8-1-1.5-2.1-2.2-3.1c-0.7-1-1.3-2.1-1.7-3
		l-2.2,11.8L349.4,207.6z"/>
	<path class="st1" d="M395.2,183.7c2.5,0,4.6,0.5,6.4,1.6l-0.7,2.6c-0.9-0.5-1.8-0.8-2.7-1.1c-0.9-0.3-1.9-0.4-3-0.4
		c-1.5,0-2.8,0.3-4,0.9c-1.2,0.6-2.1,1.5-3,2.6c-0.8,1.1-1.4,2.4-1.8,3.9c-0.4,1.5-0.6,3.1-0.7,4.8c0,2.2,0.5,3.9,1.4,5.2
		c1,1.3,2.5,1.9,4.7,1.9c1,0,2-0.1,3-0.4c0.9-0.2,1.9-0.6,2.7-1l0.6,2.4c-0.9,0.5-2,0.9-3.1,1.1c-1.1,0.3-2.3,0.4-3.6,0.4
		c-1.6,0-2.9-0.3-4.1-0.8c-1.1-0.5-2.1-1.3-2.8-2.2c-0.7-0.9-1.3-1.9-1.6-3.1c-0.3-1.2-0.5-2.4-0.5-3.7c0-2,0.3-3.8,0.9-5.6
		c0.6-1.8,1.4-3.4,2.5-4.7c1.1-1.4,2.4-2.5,4-3.3C391.4,184.1,393.2,183.7,395.2,183.7z"/>
	<path class="st1" d="M425,193.5c0,1.8-0.3,3.5-0.9,5.3c-0.6,1.8-1.4,3.4-2.5,4.8c-1.1,1.4-2.4,2.6-4,3.5c-1.6,0.9-3.4,1.3-5.4,1.3
		c-1.5,0-2.7-0.3-3.8-0.8c-1.1-0.5-2-1.2-2.7-2.1c-0.7-0.9-1.3-1.9-1.7-3.1c-0.4-1.2-0.6-2.4-0.5-3.7c0-1.9,0.3-3.7,0.9-5.5
		c0.6-1.8,1.4-3.4,2.4-4.9c1.1-1.4,2.4-2.6,4-3.5c1.6-0.9,3.4-1.3,5.4-1.3c1.5,0,2.8,0.3,3.9,0.8c1.1,0.5,2,1.2,2.8,2.1
		s1.3,1.9,1.7,3.1C424.8,191,425,192.2,425,193.5z M412.5,205.9c1.4,0,2.7-0.3,3.8-1.1c1.1-0.7,2.1-1.7,2.9-2.8s1.4-2.5,1.9-3.9
		c0.4-1.5,0.7-2.9,0.7-4.4c0-1-0.1-1.9-0.3-2.8c-0.2-0.9-0.6-1.7-1.1-2.3c-0.5-0.7-1.1-1.2-1.9-1.6c-0.8-0.4-1.7-0.6-2.7-0.6
		c-1.4,0-2.6,0.3-3.8,1c-1.1,0.7-2.1,1.6-2.9,2.8c-0.8,1.2-1.4,2.5-1.8,4c-0.4,1.5-0.6,3-0.7,4.6c0,1,0.1,1.9,0.3,2.8
		c0.2,0.8,0.5,1.6,1,2.2c0.5,0.7,1.1,1.2,1.8,1.5C410.5,205.7,411.4,205.9,412.5,205.9z"/>
	<path class="st1" d="M428.5,208.1l4.3-23.7l3.1,0l-1.2,6.8c0.5-0.9,1.1-1.8,1.7-2.7s1.3-1.6,2.1-2.3c0.8-0.7,1.6-1.2,2.5-1.6
		c0.9-0.4,1.9-0.6,3-0.6c1,0,1.9,0.2,2.7,0.6c0.8,0.4,1.4,1,1.9,1.7c0.5,0.7,0.9,1.6,1.1,2.6c0.2,1,0.3,2.1,0.3,3.2
		c0,0.6,0,1.2-0.1,1.8c-0.1,0.6-0.1,1.3-0.3,1.9l-2.3,12.4l-3.2,0l2.2-12.1c0.2-1.3,0.4-2.5,0.4-3.8c0-1.6-0.2-2.9-0.8-4
		c-0.5-1.1-1.4-1.6-2.8-1.6c-0.9,0-1.7,0.2-2.6,0.8s-1.7,1.2-2.4,2c-0.8,0.8-1.5,1.8-2.2,2.9c-0.7,1.1-1.4,2.2-2,3.4l-2.3,12.4
		L428.5,208.1z"/>
	<path class="st1" d="M459.8,208.3c-0.6-4.5-1.3-8.7-2.1-12.5c-0.8-3.9-1.9-7.6-3.1-11.2l3.2,0c1,3.3,1.9,6.6,2.6,10.1
		c0.7,3.5,1.3,7,1.8,10.7c0.9-1.5,1.7-3,2.6-4.6c0.9-1.6,1.6-3.3,2.3-5.1c0.7-1.8,1.3-3.6,1.8-5.4c0.5-1.9,0.8-3.7,1.1-5.6l3.2,0
		c-0.2,2.1-0.6,4.2-1.2,6.2c-0.6,2-1.3,4-2.2,5.9c-0.9,1.9-1.8,3.9-2.9,5.8s-2.3,3.8-3.5,5.8L459.8,208.3z"/>
	<path class="st1" d="M487.9,184.3c0.9,0,1.7,0.1,2.4,0.4c0.8,0.2,1.4,0.6,2,1c0.6,0.5,1,1,1.3,1.7c0.3,0.7,0.5,1.4,0.5,2.3
		c0,1.1-0.3,2.1-0.8,2.9c-0.5,0.8-1.2,1.6-2.1,2.1c-0.8,0.6-1.8,1.1-2.9,1.5c-1.1,0.4-2.2,0.7-3.4,1c-1.2,0.2-2.3,0.4-3.5,0.5
		c-1.1,0.1-2.2,0.2-3.2,0.2c-0.1,0.7-0.2,1.4-0.2,2c0,1.9,0.4,3.4,1.3,4.6c0.9,1.2,2.3,1.8,4.3,1.8c1.2,0,2.3-0.2,3.4-0.5
		c1.1-0.3,2.2-0.8,3.2-1.3l0.6,2.4c-1.1,0.6-2.2,1.1-3.5,1.4c-1.3,0.3-2.6,0.5-4,0.5c-1.5,0-2.7-0.3-3.8-0.7c-1.1-0.5-1.9-1.1-2.6-2
		c-0.7-0.8-1.2-1.8-1.6-2.9c-0.3-1.1-0.5-2.3-0.5-3.6c0-1.9,0.3-3.8,0.9-5.7c0.6-1.9,1.4-3.5,2.5-5c1.1-1.5,2.4-2.6,4-3.5
		C484.1,184.7,485.9,184.3,487.9,184.3z M487.5,186.8c-1.1,0-2.2,0.2-3.1,0.7s-1.8,1.2-2.6,2c-0.8,0.8-1.4,1.7-1.9,2.8
		c-0.5,1-0.9,2.1-1.1,3.1c1.2,0,2.5-0.1,3.9-0.3c1.4-0.2,2.7-0.5,3.9-0.9c1.2-0.4,2.2-1,3.1-1.7c0.8-0.7,1.3-1.6,1.3-2.7
		c0-0.9-0.3-1.6-0.9-2.1C489.5,187,488.6,186.8,487.5,186.8z"/>
	<path class="st1" d="M511.9,187.8c-0.2,0-0.4-0.1-0.6-0.1c-2.1,0-3.9,0.8-5.3,2.4c-1.5,1.6-2.7,3.7-3.8,6.4l-2.2,12.1l-3.2,0
		l4.3-23.7l3.2,0.1l-1.3,7.4c0.3-1.1,0.8-2,1.2-3c0.5-0.9,1.1-1.7,1.7-2.4c0.7-0.7,1.4-1.2,2.2-1.6c0.8-0.4,1.8-0.6,2.8-0.6
		c0.2,0,0.5,0,0.8,0c0.3,0,0.5,0.1,0.7,0.1L511.9,187.8z"/>
	<path class="st1" d="M528,202.3c0,1.1-0.2,2-0.6,2.9c-0.4,0.8-1,1.6-1.8,2.2c-0.8,0.6-1.7,1.1-2.7,1.4c-1,0.3-2.2,0.5-3.4,0.5
		c-1.3,0-2.6-0.2-3.8-0.5c-1.3-0.3-2.3-0.6-3.2-1l0.8-2.6c0.9,0.4,1.9,0.8,3,1.1c1.1,0.3,2.1,0.4,3.1,0.4c1.6,0,2.9-0.3,3.9-0.9
		c1-0.6,1.6-1.6,1.6-3c0-1.1-0.4-2-1.2-2.8c-0.8-0.8-1.8-1.6-2.9-2.3c-0.7-0.4-1.4-0.9-2-1.4c-0.6-0.5-1.2-1-1.7-1.6
		c-0.5-0.6-0.9-1.1-1.2-1.8c-0.3-0.6-0.4-1.4-0.4-2.1c0-2.1,0.7-3.7,2.2-4.7c1.4-1,3.3-1.5,5.6-1.5c1.3,0,2.5,0.2,3.7,0.4
		c1.1,0.3,2.2,0.7,3.1,1.2l-0.7,2.6c-1-0.5-2-0.9-3-1.2c-1-0.3-2-0.4-3.1-0.4c-1.2,0-2.3,0.2-3.1,0.7c-0.9,0.5-1.3,1.4-1.3,2.6
		c0,1,0.3,1.7,0.9,2.4c0.6,0.6,1.6,1.3,2.8,2.2c0.6,0.4,1.2,0.8,1.9,1.3c0.7,0.5,1.3,1,1.9,1.6c0.6,0.6,1,1.3,1.4,2
		C527.8,200.6,528,201.4,528,202.3z"/>
	<path class="st1" d="M549.9,208.9l-3.1,0l1.6-9.2c-0.5,1-1,2.1-1.7,3.2c-0.7,1.1-1.4,2.2-2.2,3.2s-1.7,1.8-2.7,2.4s-2,0.9-3.1,0.9
		c-1.1,0-2-0.2-2.7-0.7c-0.7-0.5-1.3-1.1-1.8-1.9c-0.5-0.8-0.8-1.6-1-2.6c-0.2-1-0.3-2-0.3-3.1c0-2.1,0.3-4.1,0.9-6.1
		s1.5-3.7,2.6-5.3c1.2-1.5,2.6-2.8,4.3-3.7c1.7-0.9,3.7-1.4,5.9-1.4c1.3,0,2.7,0.1,4,0.4c1.3,0.3,2.5,0.6,3.5,1L549.9,208.9z
		 M539.1,206.7c1,0,2-0.5,3-1.4c1-1,2-2.2,2.9-3.6c0.9-1.4,1.8-3,2.6-4.7c0.8-1.7,1.5-3.3,2.1-4.8l0.8-4.5c-1.1-0.3-2.5-0.5-4-0.5
		c-1.7,0-3.1,0.4-4.4,1.1c-1.3,0.7-2.4,1.7-3.3,3c-0.9,1.3-1.6,2.7-2,4.4c-0.5,1.7-0.7,3.4-0.7,5.2c0,0.8,0,1.5,0.1,2.2
		c0.1,0.7,0.2,1.3,0.5,1.8c0.2,0.5,0.5,1,0.9,1.3C538,206.6,538.5,206.7,539.1,206.7z"/>
	<path class="st1" d="M559,185.2l4.4,0l1.2-6.4l3.2,0l-1.2,6.4l7.9,0l-0.5,2.6l-7.9,0l-2.5,13.9c-0.1,0.3-0.1,0.6-0.2,0.9
		c0,0.3-0.1,0.6-0.1,0.9c0,1.1,0.2,1.9,0.7,2.5c0.5,0.6,1.3,0.9,2.5,0.9c0.9,0,1.7-0.1,2.5-0.3c0.8-0.2,1.6-0.5,2.2-0.7l0.3,2.4
		c-0.7,0.4-1.5,0.7-2.5,0.9c-1,0.2-2,0.3-3,0.3c-2.1,0-3.6-0.5-4.5-1.6c-1-1.1-1.5-2.5-1.4-4.3c0-0.4,0-0.7,0.1-1
		c0-0.3,0.1-0.6,0.2-0.9l2.5-13.8l-4.5,0L559,185.2z"/>
	<path class="st1" d="M576,209l4.3-23.7l3.2,0l-4.3,23.7L576,209z M581,178.3c0-0.7,0.2-1.2,0.7-1.8c0.5-0.5,1.1-0.8,1.9-0.8
		c0.7,0,1.2,0.2,1.5,0.6c0.4,0.4,0.5,0.8,0.5,1.4c0,0.7-0.3,1.3-0.8,1.8c-0.5,0.5-1.1,0.7-1.9,0.7c-0.6,0-1.1-0.2-1.5-0.6
		C581.1,179.4,581,178.9,581,178.3z"/>
	<path class="st1" d="M609,194.7c0,1.8-0.3,3.5-0.9,5.3c-0.6,1.8-1.4,3.4-2.5,4.8c-1.1,1.4-2.4,2.6-4,3.5c-1.6,0.9-3.4,1.3-5.4,1.3
		c-1.5,0-2.7-0.3-3.8-0.8c-1.1-0.5-2-1.2-2.7-2.1c-0.7-0.9-1.3-1.9-1.7-3.1c-0.4-1.2-0.6-2.4-0.5-3.7c0-1.9,0.3-3.7,0.9-5.5
		c0.6-1.8,1.4-3.4,2.4-4.9c1.1-1.4,2.4-2.6,4-3.5c1.6-0.9,3.4-1.3,5.4-1.3c1.5,0,2.8,0.3,3.9,0.8c1.1,0.5,2,1.2,2.8,2.1
		c0.7,0.9,1.3,1.9,1.7,3.1C608.8,192.1,609,193.3,609,194.7z M596.5,207.1c1.4,0,2.7-0.3,3.8-1.1c1.1-0.7,2.1-1.7,2.9-2.8
		c0.8-1.2,1.4-2.5,1.9-3.9c0.4-1.5,0.7-2.9,0.7-4.4c0-1-0.1-1.9-0.3-2.8c-0.2-0.9-0.6-1.7-1.1-2.3c-0.5-0.7-1.1-1.2-1.9-1.6
		c-0.8-0.4-1.7-0.6-2.7-0.6c-1.4,0-2.6,0.3-3.8,1c-1.1,0.7-2.1,1.6-2.9,2.8c-0.8,1.2-1.4,2.5-1.8,4c-0.4,1.5-0.6,3-0.7,4.6
		c0,1,0.1,1.9,0.3,2.8c0.2,0.8,0.5,1.6,1,2.2c0.5,0.6,1.1,1.2,1.8,1.5C594.5,206.9,595.4,207.1,596.5,207.1z"/>
	<path class="st1" d="M612.5,209.3l4.3-23.7l3.1,0l-1.2,6.8c0.5-0.9,1.1-1.8,1.7-2.7c0.6-0.9,1.3-1.6,2.1-2.3
		c0.8-0.7,1.6-1.2,2.5-1.6c0.9-0.4,1.9-0.6,3-0.6c1,0,1.9,0.2,2.7,0.6c0.8,0.4,1.4,1,1.9,1.7c0.5,0.7,0.9,1.6,1.1,2.6
		c0.2,1,0.3,2.1,0.3,3.2c0,0.6,0,1.2-0.1,1.8c-0.1,0.6-0.1,1.3-0.3,1.9l-2.3,12.4l-3.2,0l2.2-12.1c0.2-1.3,0.4-2.5,0.4-3.8
		c0-1.6-0.2-2.9-0.8-4c-0.5-1.1-1.4-1.6-2.8-1.6c-0.9,0-1.7,0.2-2.6,0.8c-0.8,0.5-1.7,1.2-2.4,2c-0.8,0.8-1.5,1.8-2.2,2.9
		c-0.7,1.1-1.4,2.2-2,3.4l-2.3,12.4L612.5,209.3z"/>
	<path class="st1" d="M654.1,203.1c0,1.1-0.2,2-0.7,2.9c-0.4,0.8-1,1.6-1.8,2.2c-0.8,0.6-1.7,1.1-2.7,1.4c-1,0.3-2.2,0.5-3.4,0.5
		c-1.3,0-2.6-0.2-3.8-0.5c-1.3-0.3-2.3-0.6-3.2-1l0.8-2.6c0.9,0.4,1.9,0.8,3,1.1c1.1,0.3,2.1,0.4,3.1,0.4c1.6,0,2.9-0.3,3.9-0.9
		c1-0.6,1.6-1.6,1.6-3c0-1.1-0.4-2-1.2-2.8c-0.8-0.8-1.8-1.6-2.9-2.3c-0.7-0.4-1.4-0.9-2-1.4c-0.6-0.5-1.2-1-1.7-1.6
		c-0.5-0.6-0.9-1.1-1.2-1.8c-0.3-0.6-0.4-1.4-0.4-2.1c0-2.1,0.7-3.7,2.2-4.7c1.4-1,3.3-1.5,5.6-1.5c1.3,0,2.5,0.2,3.7,0.4
		c1.1,0.3,2.2,0.7,3.1,1.2l-0.7,2.6c-1-0.5-2-0.9-3-1.2c-1-0.3-2-0.4-3.1-0.4c-1.2,0-2.3,0.2-3.1,0.7c-0.9,0.5-1.3,1.4-1.3,2.6
		c0,1,0.3,1.7,0.9,2.4c0.6,0.6,1.6,1.3,2.8,2.2c0.6,0.4,1.2,0.8,1.9,1.3c0.7,0.5,1.3,1,1.9,1.6c0.6,0.6,1,1.3,1.4,2
		C653.9,201.4,654.1,202.2,654.1,203.1z"/>
</g>
</svg>
