<svg id="Layer_1" data-name="Layer 1" xmlns="http://www.w3.org/2000/svg" viewBox="0 0 150 150"><title>nas tours icons</title><path d="M147.5,96.25a2.5,2.5,0,0,0,2.5-2.5v-20a2.5,2.5,0,0,0-2.5-2.5H116l15.73-15.73a2.52,2.52,0,0,0,0-3.54L118.11,38.32a2.52,2.52,0,0,0-3.54,0,10,10,0,0,1-14.14-14.14,2.52,2.52,0,0,0,0-3.54L89.27,9.48a2.52,2.52,0,0,0-3.54,0L24,71.25H2.5A2.5,2.5,0,0,0,0,73.75v20a2.5,2.5,0,0,0,2.5,2.5,10,10,0,0,1,0,20,2.5,2.5,0,0,0-2.5,2.5v20a2.5,2.5,0,0,0,2.5,2.5h145a2.5,2.5,0,0,0,2.5-2.5v-20a2.5,2.5,0,0,0-2.5-2.5,10,10,0,0,1,0-20Zm-60-81.47,7.77,7.77A15,15,0,0,0,116.2,43.48l10.27,10.27L109,71.25H101l5.73-5.73a2.52,2.52,0,0,0,0-3.54l-27.5-27.5a2.52,2.52,0,0,0-3.54,0L39,71.25H31ZM94,71.25H46L77.5,39.78l24,24Zm38.73,37.49A15,15,0,0,0,145,121v15.21H125v-10h-5v10H30v-2.5H25v2.5H5V121A15,15,0,0,0,5,91.46V76.25H25v7.5h5v-7.5H145V91.46A15,15,0,0,0,132.69,108.74Z"/><rect x="72.5" y="81.25" width="5" height="10"/><rect x="72.5" y="96.25" width="5" height="10"/><rect x="72.5" y="111.25" width="5" height="10"/><rect x="72.5" y="88.75" width="5" height="10"/><rect x="72.5" y="103.75" width="5" height="10"/><rect x="72.5" y="118.75" width="5" height="10"/><path d="M110,88.75a5,5,0,0,1-5-5,2.5,2.5,0,0,0-2.5-2.5h-55a2.5,2.5,0,0,0-2.5,2.5,5,5,0,0,1-5,5,2.5,2.5,0,0,0-2.5,2.5v30a2.5,2.5,0,0,0,2.5,2.5,5,5,0,0,1,5,5,2.5,2.5,0,0,0,2.5,2.5h55a2.5,2.5,0,0,0,2.5-2.5,5,5,0,0,1,5-5,2.5,2.5,0,0,0,2.5-2.5v-30A2.5,2.5,0,0,0,110,88.75Zm-2.5,30.31a10.06,10.06,0,0,0-7.19,7.19H49.69a10.06,10.06,0,0,0-7.19-7.19V93.43a10,10,0,0,0,7.19-7.18h50.62a10,10,0,0,0,7.19,7.18Z"/></svg>