<svg id="Layer_1" data-name="Layer 1" xmlns="http://www.w3.org/2000/svg" viewBox="0 0 150 150"><title>nas tours icons</title><path d="M119.73,42a64,64,0,0,0-11.2-8.94l3.54-6.13,6.23,3.6a2.15,2.15,0,0,0,1.09.29,2.2,2.2,0,0,0,1.11-4.1l-16.27-9.4a2.2,2.2,0,1,0-2.2,3.82l6.22,3.59-3.53,6.13a62.36,62.36,0,0,0-20.27-6.69,13.94,13.94,0,1,0-18.9,0,62.36,62.36,0,0,0-20.27,6.69l-3.53-6.13L48,21.14a2.2,2.2,0,1,0-2.2-3.81L29.5,26.72a2.2,2.2,0,0,0,1.11,4.11,2.15,2.15,0,0,0,1.09-.29l6.23-3.6,3.54,6.13A64,64,0,0,0,30.27,42a63.26,63.26,0,1,0,89.46,89.46,63.25,63.25,0,0,0,0-89.46ZM65.46,13.94A9.54,9.54,0,1,1,75,23.48,9.55,9.55,0,0,1,65.46,13.94ZM75,145.6a58.86,58.86,0,1,1,58.86-58.86A58.93,58.93,0,0,1,75,145.6Z"/><path d="M77.2,77.76V44.47a2.2,2.2,0,0,0-4.4,0V77.76a9.24,9.24,0,0,0,0,18v12.16a2.2,2.2,0,0,0,4.4,0V95.72a9.25,9.25,0,0,0,0-18ZM75,91.59a4.85,4.85,0,1,1,4.84-4.85A4.85,4.85,0,0,1,75,91.59Z"/><path d="M75,32.88a53.87,53.87,0,1,0,53.86,53.86A53.92,53.92,0,0,0,75,32.88ZM75,136.2a49.46,49.46,0,1,1,49.46-49.46A49.52,49.52,0,0,1,75,136.2Z"/></svg>