<?xml version="1.0" encoding="utf-8"?>
<!-- Generator: Adobe Illustrator 24.0.1, SVG Export Plug-In . SVG Version: 6.00 Build 0)  -->
<svg version="1.1" id="Layer_1" xmlns="http://www.w3.org/2000/svg" xmlns:xlink="http://www.w3.org/1999/xlink" x="0px" y="0px"
	 viewBox="0 0 455.3 124.8" style="enable-background:new 0 0 455.3 124.8;" xml:space="preserve">
<style type="text/css">
	.st0{fill:#FBCA1C;}
	.st1{fill:#FFFFFF;}
</style>
<path class="st0" d="M54,8.5c0.8,0,1.3,0.6,1.3,1.3v58c0,0.6-0.5,1.2-1.3,1.2H38.8c-0.6,0-1.4-0.4-1.8-1.1L21.7,40.6v27.2
	c0,0.6-0.5,1.2-1.3,1.2H4.9c-0.7,0-1.2-0.6-1.2-1.2v-58c0-0.7,0.5-1.3,1.2-1.3h15.2c0.8,0,1.7,0.4,2,1.1l15.2,27.3V9.8
	c0-0.7,0.6-1.3,1.2-1.3H54z"/>
<path class="st0" d="M119.4,67.9c0.3,0.5-0.1,1.1-0.8,1.1h-17.4c-0.8,0-1.5-0.4-1.8-1.1l-2.6-9.2H80.3l-2.6,9.2
	c-0.4,0.7-1.1,1.1-1.8,1.1H58.5c-0.7,0-1.1-0.6-0.8-1.1L77.5,9.6c0.3-0.5,1.2-1.1,2.1-1.1h17.9c0.9,0,1.8,0.6,2.1,1.1L119.4,67.9z
	 M88.5,29.5l-4.7,16.7h9.5L88.5,29.5z"/>
<path class="st0" d="M125.2,51.3c0.4-0.9,1.1-1.1,1.7-0.7c4.4,2.8,9.6,4.7,12.8,4.7c2.5,0,4.1-1.2,4.1-3.1c0-7.8-24.8-4.9-24.8-25.5
	c0-11.7,8.9-19.6,22.2-19.6c6.7,0,14.5,2.6,19.6,6.5c0.4,0.4,0.6,0.9,0.4,1.4l-6,10.7c-0.4,0.8-1.1,1.1-1.7,0.7
	c-4-2.3-8.6-3.8-11.6-3.8c-2.5,0-4.3,1.3-4.3,3.2c0,6.7,24.8,3.5,24.8,24.8c0,11.7-9,19.6-22.5,19.6c-6.6,0-14.4-2.6-19.6-6.5
	c-0.4-0.4-0.6-0.9-0.4-1.4L125.2,51.3z"/>
<path class="st1" d="M209,8.5c0.8,0,1.3,0.6,1.2,1.2L208.9,23c-0.1,0.7-0.8,1.2-1.4,1.2h-11.3v43.5c0,0.6-0.5,1.2-1.2,1.2h-15.5
	c-0.7,0-1.3-0.6-1.3-1.2V24.3h-12.8c-0.6,0-1.2-0.5-1.2-1.2V9.8c0-0.7,0.6-1.3,1.2-1.3H209z"/>
<path class="st1" d="M272.5,38.7c0,18.9-12.6,31.6-31.6,31.6s-31.6-12.6-31.6-31.6c0-18.9,12.6-31.6,31.6-31.6
	S272.5,19.7,272.5,38.7z M227.6,38.7c0,8.7,5.3,14.5,13.3,14.5s13.3-5.8,13.3-14.5s-5.3-14.5-13.3-14.5S227.6,30.1,227.6,38.7z"/>
<path class="st1" d="M326.1,8.5c1.1,0,1.8,0.7,1.8,1.5v36.9c0,14-10.2,23.3-25.5,23.3c-15.3,0-25.5-9.3-25.5-23.3V10
	c0-0.8,0.8-1.5,1.8-1.5h14.4c0.8,0,1.9,0.7,1.9,1.5v37.3c0,4.4,3,7.3,7.4,7.3s7.4-2.9,7.4-7.3V10c0-0.8,1.1-1.5,1.9-1.5H326.1z"/>
<path class="st1" d="M383.8,67.6c0.4,0.8-0.2,1.4-1,1.4H365c-0.9,0-1.7-0.6-2-1.4l-7.7-17.9c-0.8-1.9-2.1-2.9-3.4-2.7v20.8
	c0,0.6-0.6,1.2-1.4,1.2H335c-0.7,0-1.3-0.6-1.3-1.2v-58c0-0.7,0.6-1.3,1.3-1.3h23.1c13.5,0,22.4,7.9,22.4,19.8
	c0,7-3.8,13.2-9.8,16.3L383.8,67.6z M357,33.6c3,0,5-1.8,5-4.6s-2-4.6-5-4.6h-5.2v9.3H357z"/>
<path class="st1" d="M391.9,51.3c0.4-0.9,1.1-1.1,1.7-0.7c4.4,2.8,9.6,4.7,12.8,4.7c2.5,0,4.1-1.2,4.1-3.1c0-7.8-24.8-4.9-24.8-25.5
	c0-11.7,8.9-19.6,22.2-19.6c6.7,0,14.5,2.6,19.6,6.5c0.4,0.4,0.6,0.9,0.4,1.4l-6,10.7c-0.4,0.8-1.1,1.1-1.7,0.7
	c-4-2.3-8.6-3.8-11.6-3.8c-2.5,0-4.3,1.3-4.3,3.2c0,6.7,24.8,3.5,24.8,24.8c0,11.7-9,19.6-22.5,19.6c-6.6,0-14.4-2.6-19.6-6.5
	c-0.4-0.4-0.6-0.9-0.4-1.4L391.9,51.3z"/>
<path class="st0" d="M440.6,70.2c-4.6,0-7.7-2.9-7.7-7.2c0-4.4,3.1-7.4,7.7-7.4c4.6,0,7.7,3,7.7,7.4
	C448.3,67.3,445.2,70.2,440.6,70.2z"/>
<path class="st1" d="M21.7,109.5l8-17.8l2.1,0l-9.6,20.6l-2.1,0l-2.2-18.7l-8.7,18.6l-2.1,0L5,91.6l2,0l1.7,17.8L17,91.6l2.5,0
	L21.7,109.5z"/>
<path class="st1" d="M38.5,97.3c0.5,0,1,0.1,1.5,0.2c0.5,0.1,0.9,0.4,1.2,0.6c0.3,0.3,0.6,0.6,0.8,1c0.2,0.4,0.3,0.9,0.3,1.4
	c0,0.7-0.2,1.3-0.5,1.8c-0.3,0.5-0.8,1-1.3,1.3s-1.1,0.7-1.8,0.9s-1.4,0.5-2.1,0.6c-0.7,0.1-1.5,0.3-2.2,0.3c-0.7,0.1-1.4,0.1-2,0.1
	c-0.1,0.4-0.1,0.9-0.1,1.2c0,1.2,0.3,2.1,0.8,2.9s1.4,1.1,2.7,1.1c0.7,0,1.4-0.1,2.1-0.3c0.7-0.2,1.4-0.5,2-0.8l0.4,1.5
	c-0.7,0.4-1.4,0.7-2.2,0.9c-0.8,0.2-1.6,0.3-2.5,0.3c-0.9,0-1.7-0.2-2.4-0.5c-0.7-0.3-1.2-0.7-1.7-1.2c-0.4-0.5-0.8-1.1-1-1.8
	c-0.2-0.7-0.3-1.5-0.3-2.3c0-1.2,0.2-2.4,0.5-3.5c0.4-1.2,0.9-2.2,1.6-3.1c0.7-0.9,1.5-1.6,2.5-2.2C36.1,97.6,37.3,97.3,38.5,97.3z
	 M38.3,98.9c-0.7,0-1.4,0.2-2,0.5c-0.6,0.3-1.1,0.7-1.6,1.2c-0.5,0.5-0.9,1.1-1.2,1.7c-0.3,0.6-0.5,1.3-0.7,2c0.7,0,1.6-0.1,2.4-0.2
	c0.9-0.1,1.7-0.3,2.5-0.6c0.8-0.3,1.4-0.6,1.9-1.1c0.5-0.4,0.8-1,0.8-1.7c0-0.5-0.2-1-0.6-1.3C39.5,99,39,98.9,38.3,98.9z"/>
<path class="st1" d="M59.9,108.5c0,0.7-0.1,1.3-0.4,1.8c-0.3,0.5-0.6,1-1.1,1.3c-0.5,0.4-1,0.7-1.7,0.9c-0.7,0.2-1.4,0.3-2.1,0.3
	c-0.8,0-1.6-0.1-2.4-0.3c-0.8-0.2-1.4-0.4-2-0.6l0.5-1.6c0.6,0.3,1.2,0.5,1.9,0.7c0.7,0.2,1.3,0.3,2,0.3c1,0,1.8-0.2,2.4-0.6
	c0.6-0.4,1-1,1-1.9c0-0.7-0.2-1.2-0.7-1.7c-0.5-0.5-1.1-1-1.8-1.5c-0.4-0.3-0.8-0.6-1.3-0.9c-0.4-0.3-0.8-0.6-1.1-1
	c-0.3-0.3-0.6-0.7-0.7-1.1c-0.2-0.4-0.3-0.8-0.3-1.3c0-1.3,0.5-2.3,1.4-2.9c0.9-0.6,2.1-1,3.5-1c0.8,0,1.6,0.1,2.3,0.3
	c0.7,0.2,1.3,0.4,1.9,0.7l-0.4,1.6c-0.6-0.3-1.3-0.6-1.9-0.8C58,99.1,57.4,99,56.7,99c-0.8,0-1.4,0.1-2,0.5
	c-0.5,0.3-0.8,0.9-0.8,1.6c0,0.6,0.2,1.1,0.6,1.5s1,0.8,1.8,1.4c0.4,0.3,0.8,0.5,1.2,0.8s0.8,0.6,1.2,1c0.3,0.4,0.6,0.8,0.9,1.2
	C59.8,107.5,59.9,108,59.9,108.5z"/>
<path class="st1" d="M65.5,97.8l2,0l-0.9,4.6c0.3-0.6,0.7-1.2,1.1-1.8c0.4-0.6,0.9-1.1,1.4-1.6c0.5-0.5,1-0.8,1.7-1.1
	c0.6-0.3,1.3-0.4,2-0.4c0.6,0,1.2,0.1,1.7,0.4c0.5,0.3,0.9,0.7,1.2,1.1c0.3,0.5,0.6,1,0.7,1.7c0.2,0.6,0.2,1.3,0.2,2
	c0,1.3-0.2,2.6-0.6,3.8c-0.4,1.2-0.9,2.3-1.6,3.2c-0.7,0.9-1.6,1.7-2.6,2.3c-1.1,0.6-2.3,0.9-3.7,0.8c-0.6,0-1.1,0-1.6-0.1
	c-0.5-0.1-1-0.2-1.5-0.4l-1.2,6.6l-2,0L65.5,97.8z M72.3,99.1c-0.5,0-1.1,0.2-1.7,0.6c-0.6,0.4-1.1,0.9-1.7,1.5
	c-0.5,0.6-1.1,1.3-1.6,2.1c-0.5,0.8-1,1.6-1.3,2.4l-0.9,5c0.4,0.2,0.9,0.3,1.3,0.4c0.5,0.1,1,0.1,1.4,0.1c1.1,0,2.1-0.2,2.9-0.7
	s1.5-1.1,2.1-1.9s0.9-1.7,1.2-2.7c0.3-1,0.4-2.1,0.4-3.1c0-0.5,0-0.9-0.1-1.3c-0.1-0.4-0.2-0.8-0.4-1.2c-0.2-0.4-0.4-0.6-0.7-0.8
	C73.1,99.2,72.7,99.1,72.3,99.1z"/>
<path class="st1" d="M89.6,112.7l-1.9,0l1-5.8c-0.3,0.6-0.6,1.3-1.1,2c-0.4,0.7-0.9,1.4-1.4,2c-0.5,0.6-1.1,1.1-1.7,1.5
	c-0.6,0.4-1.3,0.6-2,0.6c-0.7,0-1.2-0.2-1.7-0.4c-0.5-0.3-0.8-0.7-1.1-1.2c-0.3-0.5-0.5-1-0.6-1.6s-0.2-1.3-0.2-1.9
	c0-1.3,0.2-2.6,0.6-3.8c0.4-1.2,0.9-2.3,1.6-3.3s1.6-1.7,2.7-2.3c1.1-0.6,2.3-0.9,3.7-0.8c0.8,0,1.7,0.1,2.5,0.3
	c0.8,0.2,1.6,0.4,2.2,0.6L89.6,112.7z M82.8,111.4c0.6,0,1.2-0.3,1.9-0.9c0.6-0.6,1.2-1.3,1.8-2.2c0.6-0.9,1.1-1.9,1.6-2.9
	c0.5-1.1,0.9-2.1,1.3-3l0.5-2.8c-0.7-0.2-1.5-0.3-2.5-0.3c-1,0-2,0.2-2.8,0.7c-0.8,0.5-1.5,1.1-2,1.9c-0.6,0.8-1,1.7-1.3,2.7
	c-0.3,1-0.4,2.1-0.5,3.3c0,0.5,0,0.9,0.1,1.4c0.1,0.4,0.2,0.8,0.3,1.1c0.1,0.3,0.3,0.6,0.6,0.8C82.1,111.3,82.4,111.4,82.8,111.4z"
	/>
<path class="st1" d="M104,99.8c-0.1,0-0.2,0-0.4,0c-1.3,0-2.4,0.5-3.3,1.5c-0.9,1-1.7,2.3-2.4,4l-1.4,7.5l-2,0L97.2,98l2,0l-0.8,4.6
	c0.2-0.7,0.5-1.3,0.8-1.8c0.3-0.6,0.7-1.1,1.1-1.5c0.4-0.4,0.9-0.8,1.4-1c0.5-0.2,1.1-0.4,1.8-0.4c0.1,0,0.3,0,0.5,0
	c0.2,0,0.3,0,0.4,0.1L104,99.8z"/>
<path class="st1" d="M104.6,112.8l4-21.9l2,0l-2.6,14.1l7.2-7l2.7,0l-7.7,7.4c0.8,1.3,1.7,2.5,2.7,3.8c1,1.2,2.2,2.4,3.6,3.6l-2.8,0
	c-0.6-0.5-1.1-1.1-1.7-1.7c-0.5-0.6-1.1-1.2-1.6-1.9c-0.5-0.6-0.9-1.3-1.4-1.9c-0.4-0.7-0.8-1.3-1.1-1.9l-1.3,7.4L104.6,112.8z"/>
<path class="st1" d="M133.2,97.9c1.6,0,2.9,0.3,4,1l-0.4,1.6c-0.6-0.3-1.1-0.5-1.7-0.7c-0.5-0.2-1.2-0.3-1.8-0.3
	c-0.9,0-1.8,0.2-2.5,0.6c-0.7,0.4-1.3,0.9-1.8,1.6s-0.9,1.5-1.1,2.4c-0.3,0.9-0.4,1.9-0.4,3c0,1.3,0.3,2.4,0.9,3.2
	c0.6,0.8,1.6,1.2,2.9,1.2c0.6,0,1.3-0.1,1.8-0.2c0.6-0.2,1.2-0.4,1.7-0.6l0.4,1.5c-0.6,0.3-1.2,0.5-1.9,0.7
	c-0.7,0.2-1.4,0.2-2.2,0.2c-1,0-1.8-0.2-2.5-0.5c-0.7-0.3-1.3-0.8-1.7-1.3c-0.5-0.6-0.8-1.2-1-2c-0.2-0.7-0.3-1.5-0.3-2.3
	c0-1.2,0.2-2.4,0.5-3.5c0.3-1.1,0.9-2.1,1.5-3c0.7-0.9,1.5-1.5,2.5-2C130.8,98.2,131.9,97.9,133.2,97.9z"/>
<path class="st1" d="M151.8,104c0,1.1-0.2,2.2-0.5,3.3c-0.4,1.1-0.9,2.1-1.6,3c-0.7,0.9-1.5,1.6-2.5,2.2c-1,0.6-2.1,0.8-3.4,0.8
	c-0.9,0-1.7-0.2-2.4-0.5c-0.7-0.3-1.3-0.7-1.7-1.3c-0.5-0.6-0.8-1.2-1-1.9c-0.2-0.7-0.3-1.5-0.3-2.3c0-1.2,0.2-2.3,0.5-3.4
	c0.3-1.1,0.9-2.1,1.5-3c0.7-0.9,1.5-1.6,2.5-2.2c1-0.5,2.1-0.8,3.4-0.8c0.9,0,1.7,0.2,2.4,0.5c0.7,0.3,1.3,0.8,1.7,1.3
	s0.8,1.2,1,1.9C151.7,102.4,151.8,103.2,151.8,104z M144,111.8c0.9,0,1.7-0.2,2.4-0.7c0.7-0.5,1.3-1,1.8-1.8
	c0.5-0.7,0.9-1.5,1.2-2.5c0.3-0.9,0.4-1.8,0.4-2.7c0-0.6-0.1-1.2-0.2-1.8c-0.1-0.5-0.4-1-0.7-1.4c-0.3-0.4-0.7-0.7-1.2-1
	c-0.5-0.2-1-0.4-1.7-0.4c-0.9,0-1.6,0.2-2.3,0.6c-0.7,0.4-1.3,1-1.8,1.7c-0.5,0.7-0.9,1.6-1.1,2.5c-0.3,0.9-0.4,1.9-0.4,2.9
	c0,0.6,0.1,1.2,0.2,1.7c0.1,0.5,0.3,1,0.6,1.4c0.3,0.4,0.7,0.7,1.1,1C142.7,111.7,143.3,111.8,144,111.8z"/>
<path class="st1" d="M153.9,113.1l2.7-14.8l2,0l-0.8,4.2c0.3-0.6,0.7-1.1,1-1.7s0.8-1,1.3-1.4c0.5-0.4,1-0.8,1.6-1
	c0.6-0.2,1.2-0.4,1.9-0.4c0.6,0,1.2,0.1,1.7,0.4c0.5,0.3,0.9,0.6,1.2,1.1c0.3,0.4,0.5,1,0.7,1.6c0.1,0.6,0.2,1.3,0.2,2
	c0,0.4,0,0.7-0.1,1.1c0,0.4-0.1,0.8-0.2,1.2l-1.4,7.7l-2,0l1.4-7.6c0.1-0.8,0.2-1.6,0.2-2.4c0-1-0.2-1.8-0.5-2.5s-0.9-1-1.7-1
	c-0.5,0-1.1,0.2-1.6,0.5c-0.5,0.3-1,0.7-1.5,1.3c-0.5,0.5-0.9,1.1-1.4,1.8c-0.4,0.7-0.8,1.4-1.2,2.1l-1.4,7.7L153.9,113.1z"/>
<path class="st1" d="M173.5,113.3c-0.4-2.8-0.8-5.4-1.3-7.8s-1.2-4.7-1.9-7l2,0c0.6,2,1.2,4.1,1.6,6.3c0.4,2.2,0.8,4.4,1.1,6.6
	c0.5-0.9,1.1-1.9,1.6-2.9c0.5-1,1-2.1,1.5-3.2c0.4-1.1,0.8-2.2,1.1-3.4c0.3-1.2,0.5-2.3,0.7-3.5l2,0c-0.1,1.3-0.4,2.6-0.8,3.9
	c-0.4,1.2-0.8,2.5-1.4,3.7c-0.5,1.2-1.1,2.4-1.8,3.6s-1.4,2.4-2.2,3.6L173.5,113.3z"/>
<path class="st1" d="M191,98.3c0.5,0,1,0.1,1.5,0.2c0.5,0.1,0.9,0.4,1.2,0.6c0.3,0.3,0.6,0.6,0.8,1c0.2,0.4,0.3,0.9,0.3,1.4
	c0,0.7-0.2,1.3-0.5,1.8c-0.3,0.5-0.8,1-1.3,1.3c-0.5,0.4-1.1,0.7-1.8,0.9c-0.7,0.3-1.4,0.5-2.1,0.6c-0.7,0.1-1.5,0.3-2.2,0.3
	c-0.7,0.1-1.4,0.1-2,0.1c-0.1,0.4-0.1,0.9-0.1,1.2c0,1.2,0.3,2.1,0.8,2.9c0.5,0.8,1.4,1.1,2.7,1.1c0.7,0,1.4-0.1,2.1-0.3
	c0.7-0.2,1.4-0.5,2-0.8l0.4,1.5c-0.7,0.4-1.4,0.7-2.2,0.9c-0.8,0.2-1.6,0.3-2.5,0.3c-0.9,0-1.7-0.2-2.4-0.5
	c-0.7-0.3-1.2-0.7-1.7-1.2c-0.4-0.5-0.8-1.1-1-1.8c-0.2-0.7-0.3-1.5-0.3-2.3c0-1.2,0.2-2.4,0.5-3.5c0.4-1.2,0.9-2.2,1.6-3.1
	c0.7-0.9,1.5-1.6,2.5-2.2C188.6,98.5,189.7,98.3,191,98.3z M190.7,99.8c-0.7,0-1.4,0.2-2,0.5c-0.6,0.3-1.1,0.7-1.6,1.2
	c-0.5,0.5-0.9,1.1-1.2,1.7s-0.5,1.3-0.7,2c0.7,0,1.6-0.1,2.4-0.2c0.9-0.1,1.7-0.3,2.5-0.6c0.8-0.3,1.4-0.6,1.9-1.1
	c0.5-0.4,0.8-1,0.8-1.7c0-0.5-0.2-1-0.6-1.3C192,100,191.4,99.8,190.7,99.8z"/>
<path class="st1" d="M205.9,100.4c-0.1,0-0.2,0-0.4,0c-1.3,0-2.4,0.5-3.3,1.5c-0.9,1-1.7,2.3-2.4,4l-1.4,7.5l-2,0l2.7-14.8l2,0
	l-0.8,4.6c0.2-0.7,0.5-1.3,0.8-1.8c0.3-0.6,0.7-1.1,1.1-1.5c0.4-0.4,0.9-0.8,1.4-1c0.5-0.2,1.1-0.4,1.8-0.4c0.1,0,0.3,0,0.5,0
	c0.2,0,0.3,0,0.4,0.1L205.9,100.4z"/>
<path class="st1" d="M216,109.5c0,0.7-0.1,1.3-0.4,1.8s-0.6,1-1.1,1.3s-1,0.7-1.7,0.9c-0.7,0.2-1.4,0.3-2.1,0.3
	c-0.8,0-1.6-0.1-2.4-0.3c-0.8-0.2-1.4-0.4-2-0.6l0.5-1.6c0.6,0.3,1.2,0.5,1.9,0.7c0.7,0.2,1.3,0.3,2,0.3c1,0,1.8-0.2,2.4-0.6
	c0.6-0.4,1-1,1-1.9c0-0.7-0.2-1.2-0.7-1.7c-0.5-0.5-1.1-1-1.8-1.5c-0.4-0.3-0.8-0.6-1.2-0.9c-0.4-0.3-0.8-0.6-1.1-1
	c-0.3-0.3-0.6-0.7-0.7-1.1c-0.2-0.4-0.3-0.8-0.3-1.3c0-1.3,0.5-2.3,1.4-2.9c0.9-0.6,2.1-1,3.5-1c0.8,0,1.6,0.1,2.3,0.3
	c0.7,0.2,1.3,0.4,1.9,0.7l-0.4,1.6c-0.6-0.3-1.3-0.6-1.9-0.8c-0.6-0.2-1.2-0.3-1.9-0.3c-0.8,0-1.4,0.1-2,0.5
	c-0.5,0.3-0.8,0.9-0.8,1.6c0,0.6,0.2,1.1,0.6,1.5c0.4,0.4,1,0.8,1.8,1.4c0.4,0.3,0.8,0.5,1.2,0.8c0.4,0.3,0.8,0.6,1.2,1
	c0.3,0.4,0.6,0.8,0.9,1.2C215.9,108.5,216,109,216,109.5z"/>
<path class="st1" d="M229.6,113.6l-1.9,0l1-5.8c-0.3,0.6-0.6,1.3-1.1,2s-0.9,1.4-1.4,2c-0.5,0.6-1.1,1.1-1.7,1.5
	c-0.6,0.4-1.3,0.6-2,0.6c-0.7,0-1.2-0.2-1.7-0.4c-0.5-0.3-0.8-0.7-1.1-1.2c-0.3-0.5-0.5-1-0.6-1.6c-0.1-0.6-0.2-1.3-0.2-1.9
	c0-1.3,0.2-2.6,0.6-3.8c0.4-1.2,0.9-2.3,1.6-3.3c0.7-1,1.6-1.7,2.7-2.3c1.1-0.6,2.3-0.9,3.7-0.8c0.8,0,1.7,0.1,2.5,0.3
	c0.8,0.2,1.6,0.4,2.2,0.6L229.6,113.6z M222.9,112.3c0.6,0,1.2-0.3,1.9-0.9c0.6-0.6,1.2-1.3,1.8-2.2c0.6-0.9,1.1-1.9,1.6-2.9
	c0.5-1.1,0.9-2.1,1.3-3l0.5-2.8c-0.7-0.2-1.5-0.3-2.5-0.3c-1,0-2,0.2-2.8,0.7s-1.5,1.1-2,1.9c-0.6,0.8-1,1.7-1.3,2.7
	c-0.3,1-0.4,2.1-0.5,3.3c0,0.5,0,0.9,0.1,1.4c0.1,0.4,0.2,0.8,0.3,1.1c0.1,0.3,0.3,0.6,0.6,0.8C222.2,112.2,222.5,112.3,222.9,112.3
	z"/>
<path class="st1" d="M235.3,98.9l2.8,0l0.7-4l2,0l-0.7,4l4.9,0l-0.3,1.6l-4.9,0l-1.6,8.7c0,0.2-0.1,0.4-0.1,0.6c0,0.2,0,0.4,0,0.6
	c0,0.7,0.1,1.2,0.4,1.5c0.3,0.4,0.8,0.6,1.6,0.6c0.5,0,1.1-0.1,1.6-0.2c0.5-0.1,1-0.3,1.4-0.5l0.2,1.5c-0.4,0.2-0.9,0.4-1.6,0.5
	c-0.6,0.1-1.2,0.2-1.8,0.2c-1.3,0-2.2-0.3-2.8-1c-0.6-0.7-0.9-1.6-0.9-2.7c0-0.2,0-0.4,0-0.6c0-0.2,0.1-0.4,0.1-0.5l1.6-8.6l-2.8,0
	L235.3,98.9z"/>
<path class="st1" d="M245.9,113.7l2.7-14.8l2,0l-2.7,14.8L245.9,113.7z M249,94.6c0-0.4,0.1-0.8,0.4-1.1c0.3-0.3,0.7-0.5,1.2-0.5
	c0.4,0,0.7,0.1,1,0.3s0.3,0.5,0.3,0.9c0,0.5-0.2,0.8-0.5,1.1c-0.3,0.3-0.7,0.4-1.2,0.4c-0.4,0-0.7-0.1-0.9-0.4
	C249.1,95.2,249,94.9,249,94.6z"/>
<path class="st1" d="M266.5,104.8c0,1.1-0.2,2.2-0.5,3.3c-0.4,1.1-0.9,2.1-1.6,3c-0.7,0.9-1.5,1.6-2.5,2.2c-1,0.6-2.1,0.8-3.4,0.8
	c-0.9,0-1.7-0.2-2.4-0.5c-0.7-0.3-1.3-0.7-1.7-1.3c-0.5-0.6-0.8-1.2-1-1.9c-0.2-0.7-0.3-1.5-0.3-2.3c0-1.2,0.2-2.3,0.5-3.4
	c0.3-1.1,0.9-2.1,1.5-3s1.5-1.6,2.5-2.2c1-0.5,2.1-0.8,3.4-0.8c0.9,0,1.7,0.2,2.4,0.5c0.7,0.3,1.3,0.8,1.7,1.3
	c0.5,0.6,0.8,1.2,1,1.9C266.4,103.2,266.5,103.9,266.5,104.8z M258.7,112.5c0.9,0,1.7-0.2,2.4-0.7s1.3-1,1.8-1.8
	c0.5-0.7,0.9-1.5,1.2-2.5c0.3-0.9,0.4-1.8,0.4-2.7c0-0.6-0.1-1.2-0.2-1.8c-0.1-0.5-0.4-1-0.7-1.4c-0.3-0.4-0.7-0.7-1.2-1
	c-0.5-0.2-1-0.4-1.7-0.4c-0.9,0-1.6,0.2-2.3,0.6c-0.7,0.4-1.3,1-1.8,1.7c-0.5,0.7-0.9,1.6-1.1,2.5c-0.3,0.9-0.4,1.9-0.4,2.9
	c0,0.6,0.1,1.2,0.2,1.7c0.1,0.5,0.3,1,0.6,1.4s0.7,0.7,1.1,1C257.4,112.4,258,112.5,258.7,112.5z"/>
<path class="st1" d="M268.6,113.9l2.7-14.8l2,0l-0.8,4.2c0.3-0.6,0.7-1.1,1-1.7c0.4-0.5,0.8-1,1.3-1.4c0.5-0.4,1-0.8,1.6-1
	c0.6-0.2,1.2-0.4,1.9-0.4c0.6,0,1.2,0.1,1.7,0.4c0.5,0.3,0.9,0.6,1.2,1.1c0.3,0.4,0.5,1,0.7,1.6c0.1,0.6,0.2,1.3,0.2,2
	c0,0.4,0,0.7-0.1,1.1c0,0.4-0.1,0.8-0.2,1.2l-1.4,7.7l-2,0l1.4-7.6c0.1-0.8,0.2-1.6,0.2-2.4c0-1-0.2-1.8-0.5-2.5s-0.9-1-1.7-1
	c-0.5,0-1.1,0.2-1.6,0.5c-0.5,0.3-1,0.7-1.5,1.3c-0.5,0.5-0.9,1.1-1.4,1.8c-0.4,0.7-0.8,1.4-1.2,2.1l-1.4,7.7L268.6,113.9z"/>
<path class="st1" d="M294.6,110c0,0.7-0.1,1.3-0.4,1.8c-0.3,0.5-0.6,1-1.1,1.3c-0.5,0.4-1,0.7-1.7,0.9c-0.7,0.2-1.4,0.3-2.1,0.3
	c-0.8,0-1.6-0.1-2.4-0.3c-0.8-0.2-1.4-0.4-2-0.6l0.5-1.6c0.6,0.3,1.2,0.5,1.9,0.7c0.7,0.2,1.3,0.3,2,0.3c1,0,1.8-0.2,2.4-0.6
	c0.6-0.4,1-1,1-1.9c0-0.7-0.2-1.2-0.7-1.7s-1.1-1-1.8-1.5c-0.4-0.3-0.8-0.6-1.2-0.9c-0.4-0.3-0.8-0.6-1.1-1
	c-0.3-0.3-0.6-0.7-0.7-1.1c-0.2-0.4-0.3-0.8-0.3-1.3c0-1.3,0.5-2.3,1.4-2.9c0.9-0.6,2.1-1,3.5-1c0.8,0,1.6,0.1,2.3,0.3
	c0.7,0.2,1.3,0.4,1.9,0.7l-0.4,1.6c-0.6-0.3-1.3-0.6-1.9-0.8s-1.2-0.3-1.9-0.3c-0.8,0-1.4,0.1-2,0.5c-0.5,0.3-0.8,0.9-0.8,1.6
	c0,0.6,0.2,1.1,0.6,1.5c0.4,0.4,1,0.8,1.8,1.4c0.4,0.3,0.8,0.5,1.2,0.8c0.4,0.3,0.8,0.6,1.2,1c0.3,0.4,0.6,0.8,0.9,1.2
	C294.4,109,294.6,109.5,294.6,110z"/>
</svg>
