<svg id="Layer_1" data-name="Layer 1" xmlns="http://www.w3.org/2000/svg" viewBox="0 0 150 150"><title>nas tours icons</title><g id="Schedue"><path d="M132.36,15.07h-10v-5a10,10,0,0,0-20,0v5h-20v-5a10,10,0,1,0-20,0v5h-20v-5a10,10,0,1,0-20,0v5h-10A12.5,12.5,0,0,0,0,27.55V132.44a12.5,12.5,0,0,0,12.49,12.49H87.41a2.5,2.5,0,0,0,0-5H12.49A7.49,7.49,0,0,1,5,132.44H5V50H139.85V85a2.5,2.5,0,1,0,5,0V27.55A12.49,12.49,0,0,0,132.36,15.07Zm-25-5a5,5,0,0,1,10,0v15a5,5,0,0,1-10,0Zm-39.95,0a5,5,0,0,1,10,0v15a5,5,0,0,1-10,0Zm-40,0a5,5,0,0,1,10,0v15a5,5,0,0,1-10,0ZM5,45V27.55a7.5,7.5,0,0,1,7.5-7.49h10v5a10,10,0,1,0,20,0v-5h20v5a10,10,0,1,0,20,0v-5h20v5a10,10,0,0,0,20,0v-5h10a7.49,7.49,0,0,1,7.49,7.49V45Z"/><path d="M147.34,97.48a2.5,2.5,0,1,0,0-5h-10A2.48,2.48,0,0,0,134.86,95v10a2.5,2.5,0,1,0,5,0v-3.26a27.41,27.41,0,1,1-12.89-10A2.5,2.5,0,0,0,128.71,87h0a32.51,32.51,0,1,0,14.22,10.44Z"/><path d="M119.87,110.43v-13a2.5,2.5,0,1,0-5,0v13a7.49,7.49,0,0,0-4.54,4.53h-8a2.5,2.5,0,0,0,0,5h8a7.48,7.48,0,1,0,9.53-9.53Zm-2.5,9.53a2.5,2.5,0,1,1,2.5-2.5A2.49,2.49,0,0,1,117.37,120Z"/><path d="M62.43,77.5h-10a5,5,0,0,1-5-5V65a5,5,0,0,1,5-5h10a5,5,0,0,1,5,5v7.5A5,5,0,0,1,62.43,77.5ZM52.44,65v7.5h10V65Z"/><path d="M92.4,77.5h-10a5,5,0,0,1-5-5V65a5,5,0,0,1,5-5h10a5,5,0,0,1,5,5v7.5A5,5,0,0,1,92.4,77.5ZM82.41,65v7.5h10V65Z"/><path d="M32.47,77.5h-10a5,5,0,0,1-5-5V65a5,5,0,0,1,5-5h10a5,5,0,0,1,5,5v7.5A5,5,0,0,1,32.47,77.5ZM22.48,65v7.5h10V65Z"/><path d="M122.37,77.5h-10a5,5,0,0,1-5-5V65a5,5,0,0,1,5-5h10a5,5,0,0,1,5,5v7.5A5,5,0,0,1,122.37,77.5ZM112.38,65v7.5h10V65Z"/><path d="M62.43,105h-10a5,5,0,0,1-5-5V92.49a5,5,0,0,1,5-5h10a5,5,0,0,1,5,5V100A5,5,0,0,1,62.43,105Zm-10-12.48V100h10V92.49Z"/><path d="M82.41,105a5,5,0,0,1-5-5V92.49a5,5,0,0,1,5-5H89.9a2.5,2.5,0,0,1,0,5H82.41V100a2.5,2.5,0,1,1,0,5Z"/><path d="M32.47,105h-10a5,5,0,0,1-5-5V92.49a5,5,0,0,1,5-5h10a5,5,0,0,1,5,5V100A5,5,0,0,1,32.47,105Zm-10-12.48V100h10V92.49Z"/><path d="M62.43,132.44h-10a5,5,0,0,1-5-5V120a5,5,0,0,1,5-5h10a5,5,0,0,1,5,5v7.49A5,5,0,0,1,62.43,132.44ZM52.44,120v7.49h10V120Z"/><path d="M32.47,132.44h-10a5,5,0,0,1-5-5V120a5,5,0,0,1,5-5h10a5,5,0,0,1,5,5v7.49A5,5,0,0,1,32.47,132.44ZM22.48,120v7.49h10V120Z"/></g></svg>