<svg id="Capa_1" data-name="Capa 1" xmlns="http://www.w3.org/2000/svg" viewBox="0 0 30 30"><defs><style>.cls-1{fill:#fff;stroke:#fff;stroke-miterlimit:10;}</style></defs><title>mute-01</title><path class="cls-1" d="M17.63.91a2.49,2.49,0,0,0-2.69.35L7.83,7.18H3.08A2.53,2.53,0,0,0,.55,9.71V20.38a2.53,2.53,0,0,0,2.53,2.53H7.83l7.11,5.93a2.53,2.53,0,0,0,4.15-1.94V3.2A2.51,2.51,0,0,0,17.63.91ZM7.29,21.24H3.08a.85.85,0,0,1-.84-.86V9.71a.84.84,0,0,1,.84-.84H7.29ZM17.4,26.9a.83.83,0,0,1-.48.76.84.84,0,0,1-.9-.12L9,21.67V8.42l7-5.87a.84.84,0,0,1,1.38.65Z"/><path class="cls-1" d="M20.25,22.25a.71.71,0,0,1-.58-.31.69.69,0,0,1,.19-1,7.65,7.65,0,0,0,3.34-6.32,7.58,7.58,0,0,0-3-6,.7.7,0,1,1,.86-1.11,9,9,0,0,1,3.51,7.15,9.07,9.07,0,0,1-4,7.48A.72.72,0,0,1,20.25,22.25Z"/><path class="cls-1" d="M21.8,24.18a.73.73,0,0,1-.58-.3.71.71,0,0,1,.17-1A10.11,10.11,0,0,0,21,6.15.7.7,0,1,1,21.78,5a11.5,11.5,0,0,1,.42,19.08A.73.73,0,0,1,21.8,24.18Z"/><path class="cls-1" d="M23.19,26a.69.69,0,0,1-.57-.29.7.7,0,0,1,.16-1,12.61,12.61,0,0,0,3.76-4.32,12.4,12.4,0,0,0-4.05-16,.7.7,0,0,1,.78-1.17,13.8,13.8,0,0,1,.33,22.65A.71.71,0,0,1,23.19,26Z"/></svg>